<svg width="18" height="18" viewBox="0 0 18 18" fill="none" xmlns="http://www.w3.org/2000/svg">
<path d="M3.90625 18H0.273438V6.32031H3.90625V18ZM2.07031 4.75781C0.9375 4.75781 0 3.78125 0 2.60938C0 1.47656 0.9375 0.539062 2.07031 0.539062C3.24219 0.539062 4.17969 1.47656 4.17969 2.60938C4.17969 3.78125 3.24219 4.75781 2.07031 4.75781ZM17.4609 18H13.8672V12.3359C13.8672 10.9688 13.8281 9.25 11.9531 9.25C10.0781 9.25 9.80469 10.6953 9.80469 12.2188V18H6.17188V6.32031H9.64844V7.92188H9.6875C10.1953 7.02344 11.3672 6.04688 13.125 6.04688C16.7969 6.04688 17.5 8.46875 17.5 11.5938V18H17.4609Z" fill="#144679"/>
</svg>
