<svg width="561" height="470" viewBox="0 0 561 470" fill="none" xmlns="http://www.w3.org/2000/svg">
<path opacity="0.5" d="M437.304 415.379C449.604 428.939 472.035 449.193 481.712 457.624L184.849 464.164C76.7147 426.494 45.1336 370.912 46.5089 334.183C47.8842 297.454 77.8776 250.921 138.629 271.863C199.38 292.806 233.841 331.638 257.074 359.093C280.307 386.549 301.362 407.444 323.552 422.208C341.305 434.021 356.34 440.976 361.639 442.98C360.598 441.902 356.122 439.135 342.475 427.129C327.153 413.653 311.807 385.346 318.084 370.207C324.361 355.068 344.78 335.55 370.428 345.663C396.074 355.777 421.931 398.429 437.304 415.379Z" fill="#FF9000" fill-opacity="0.19"/>
<path opacity="0.5" fill-rule="evenodd" clip-rule="evenodd" d="M69.8803 280.922C85.3336 267.147 108.266 260.725 138.836 271.263C199.757 292.264 234.311 331.209 257.559 358.683C280.776 386.12 301.786 406.96 323.904 421.679C338.091 431.12 350.532 437.446 357.621 440.613C357.245 440.321 356.836 440 356.391 439.65C353.426 437.315 348.887 433.617 342.056 427.608C334.321 420.802 326.604 410.283 321.604 399.559C319.104 394.195 317.273 388.759 316.465 383.692C315.659 378.631 315.868 373.894 317.498 369.964C320.684 362.278 327.444 353.505 336.663 347.922C345.903 342.327 357.627 339.933 370.66 345.072C383.653 350.196 396.621 363.512 408.208 377.553C413.545 384.02 418.611 390.666 423.262 396.774C423.672 397.311 424.078 397.844 424.483 398.372C429.474 404.917 433.955 410.741 437.777 414.954C450.047 428.484 472.452 448.713 482.129 457.145L483.367 458.222L184.748 464.801L184.64 464.761C76.3968 427.056 44.4835 371.301 45.8742 334.159C46.5672 315.655 54.4644 294.664 69.8803 280.922ZM70.7251 281.87C55.6122 295.342 47.8254 315.982 47.1431 334.206C45.7839 370.509 77.0109 425.895 184.949 463.527L480.064 457.025C469.821 448.043 448.667 428.849 436.835 415.804C432.969 411.546 428.454 405.676 423.471 399.144C423.07 398.615 422.665 398.082 422.255 397.545C417.599 391.434 412.551 384.807 407.231 378.361C395.635 364.31 382.85 351.243 370.195 346.253C357.581 341.28 346.271 343.588 337.32 349.008C328.348 354.441 321.761 362.997 318.671 370.45C317.161 374.089 316.935 378.568 317.719 383.493C318.503 388.413 320.289 393.734 322.755 399.022C327.69 409.607 335.307 419.98 342.894 426.654C349.709 432.647 354.231 436.332 357.177 438.654C358.362 439.585 359.291 440.297 360.017 440.852C360.193 440.988 360.358 441.116 360.511 441.231C361.275 441.82 361.795 442.227 362.096 442.538L361.414 443.573C356.066 441.553 340.988 434.57 323.201 422.736C300.937 407.923 279.838 386.977 256.589 359.503C233.371 332.065 199.003 293.347 138.422 272.463C108.24 262.059 85.8001 268.432 70.7251 281.87Z" fill="#FF8A37" fill-opacity="0.53"/>
<path opacity="0.5" d="M58.5814 418.622C89.8832 440.352 100.929 455.273 107.666 465.183C86.7815 465.643 55.2531 471.096 32.6284 458.928C-17.372 432.034 27.2797 396.894 58.5814 418.622Z" fill="#FF9000" fill-opacity="0.19"/>
<path opacity="0.5" d="M509.056 410.772C532.919 426.684 551.885 447.074 559.563 455.642L506.95 456.801C476.864 441.652 467.954 415.009 471.479 404.945C475.004 394.88 485.197 394.863 509.056 410.772Z" fill="#FF9000" fill-opacity="0.19"/>
<path opacity="0.5" fill-rule="evenodd" clip-rule="evenodd" d="M482.719 397.487C488.849 398.237 497.473 402.289 509.408 410.247C533.34 426.205 552.349 446.64 560.036 455.221L560.956 456.246L506.807 457.439L506.666 457.371C491.508 449.737 481.666 439.201 476.058 429.279C473.256 424.32 471.503 419.507 470.682 415.283C469.857 411.072 469.949 407.395 470.877 404.733C471.789 402.131 473.159 400.107 475.137 398.84C477.12 397.568 479.629 397.115 482.719 397.487ZM475.821 399.908C474.156 400.978 472.929 402.728 472.076 405.156C471.248 407.528 471.129 410.955 471.926 415.04C472.722 419.116 474.422 423.799 477.162 428.653C482.633 438.329 492.246 448.654 507.097 456.163L558.165 455.038C549.972 445.964 531.591 426.565 508.704 411.304C496.781 403.35 488.376 399.458 482.565 398.748C479.679 398.397 477.491 398.839 475.821 399.908Z" fill="#FF8A37" fill-opacity="0.53"/>
<path d="M262.881 384.687L283.214 392.79L273.001 417.382L252.667 409.278L262.881 384.687Z" fill="url(#paint0_linear_108_753)"/>
<path d="M296.474 433.286C290.94 427.841 276.673 412.835 275.406 411.495C265.555 413.973 257.815 406.925 255.177 403.093C249.081 408.337 246.233 415.783 245.978 417.706L294.599 437.899C297.763 439.316 299.165 435.932 296.474 433.286Z" fill="#161616"/>
<path d="M275.406 411.495C265.554 413.973 257.814 406.925 255.176 403.093C254.337 403.814 253.565 404.559 252.857 405.312C256.266 409.974 265.899 418.11 277.157 413.336C276.251 412.387 275.628 411.727 275.406 411.495Z" fill="#FF562B"/>
<path d="M282.889 400.535C279.912 410.681 255.63 401.563 255.807 397.716C257.08 370.178 257.976 332.252 258.599 322.823C259.222 313.394 210.206 240.552 188.8 195.945C193.066 195.851 213.514 176.812 235.725 176.323C279.533 207.91 295.222 255.995 294.8 308.316C291.443 339.275 285.866 390.389 282.889 400.535Z" fill="#1B1B1B"/>
<path d="M282.889 400.535C279.912 410.681 255.63 401.563 255.807 397.716C257.08 370.178 257.976 332.252 258.599 322.823C259.222 313.394 210.206 240.552 188.8 195.945C193.066 195.851 213.514 176.812 235.725 176.323C279.533 207.91 295.222 255.995 294.8 308.316C291.443 339.275 285.866 390.389 282.889 400.535Z" fill="url(#paint1_linear_108_753)"/>
<path d="M282.889 400.535C279.912 410.681 255.63 401.563 255.807 397.716C257.08 370.178 257.976 332.252 258.599 322.823C259.222 313.394 210.206 240.552 188.8 195.945C193.066 195.851 213.514 176.812 235.725 176.323C279.533 207.91 295.222 255.995 294.8 308.316C291.443 339.275 285.866 390.389 282.889 400.535Z" fill="url(#paint2_linear_108_753)"/>
<path d="M194.415 371.239C190.666 371.321 187.689 374.512 187.774 378.339C187.858 382.165 190.972 385.222 194.721 385.139C198.469 385.057 201.446 381.866 201.362 378.039C201.278 374.213 198.163 371.156 194.415 371.239Z" fill="#19004B"/>
<path d="M193.668 383.444C193.629 383.445 193.59 383.445 193.551 383.446C193.433 383.41 193.355 383.412 193.237 383.375C192.923 383.304 192.759 382.956 192.83 382.642C192.901 382.327 193.248 382.125 193.563 382.234C193.642 382.272 193.72 382.27 193.799 382.308C194.113 382.379 194.316 382.687 194.244 383.001C194.171 383.237 193.942 383.438 193.668 383.444ZM196.009 383.314C195.775 383.319 195.537 383.168 195.453 382.896C195.368 382.586 195.517 382.231 195.827 382.146C195.904 382.105 195.982 382.103 196.06 382.063C196.369 381.939 196.685 382.088 196.809 382.398C196.933 382.708 196.785 383.062 196.475 383.186C196.359 383.228 196.282 383.269 196.166 383.31C196.087 383.312 196.048 383.313 196.009 383.314ZM191.335 382.167C191.179 382.17 191.021 382.095 190.901 381.981C190.822 381.905 190.742 381.828 190.662 381.752C190.462 381.522 190.453 381.131 190.721 380.891C190.951 380.691 191.342 380.721 191.543 380.951C191.583 381.028 191.663 381.066 191.742 381.142C191.982 381.371 191.99 381.762 191.761 382.001C191.647 382.121 191.492 382.163 191.335 382.167ZM198.164 381.821C198.047 381.824 197.89 381.788 197.77 381.674C197.531 381.444 197.484 381.094 197.712 380.815C197.749 380.736 197.827 380.696 197.864 380.617C198.053 380.339 198.404 380.292 198.681 380.481C198.959 380.671 199.007 381.06 198.817 381.299C198.74 381.379 198.665 381.498 198.627 381.576C198.475 381.736 198.32 381.818 198.164 381.821ZM190.034 379.851C189.761 379.857 189.522 379.667 189.438 379.396C189.396 379.279 189.393 379.162 189.391 379.045C189.345 378.734 189.573 378.416 189.884 378.37C190.195 378.324 190.513 378.552 190.559 378.864C190.561 378.941 190.602 379.018 190.604 379.136C190.689 379.446 190.462 379.764 190.151 379.849C190.112 379.85 190.073 379.85 190.034 379.851ZM199.204 379.376C199.165 379.377 199.165 379.377 199.126 379.378C198.813 379.346 198.571 379.038 198.604 378.725C198.602 378.647 198.639 378.568 198.637 378.451C198.669 378.137 198.936 377.859 199.25 377.891C199.563 377.923 199.803 378.191 199.81 378.504C199.813 378.62 199.776 378.738 199.779 378.856C199.745 379.129 199.516 379.369 199.204 379.376ZM190.209 377.152C190.131 377.154 190.053 377.155 190.013 377.117C189.698 377.007 189.534 376.659 189.644 376.344C189.681 376.226 189.718 376.147 189.755 376.029C189.865 375.714 190.213 375.589 190.529 375.699C190.844 375.849 190.969 376.198 190.819 376.474C190.782 376.553 190.744 376.632 190.707 376.711C190.675 377.025 190.443 377.147 190.209 377.152ZM198.794 376.729C198.56 376.734 198.362 376.621 198.24 376.389C198.199 376.312 198.158 376.234 198.118 376.157C197.955 375.887 198.064 375.494 198.333 375.332C198.603 375.17 198.958 375.28 199.12 375.549C199.161 375.665 199.241 375.742 199.283 375.858C199.407 376.168 199.297 376.522 199.027 376.645C198.95 376.686 198.872 376.727 198.794 376.729ZM191.763 375.008C191.568 375.013 191.41 374.938 191.29 374.784C191.088 374.515 191.12 374.163 191.389 373.962C191.465 373.882 191.581 373.84 191.658 373.76C191.927 373.559 192.28 373.63 192.482 373.937C192.644 374.207 192.575 374.6 192.305 374.762C192.228 374.803 192.15 374.843 192.113 374.923C191.997 374.964 191.88 375.006 191.763 375.008ZM197.031 374.736C196.914 374.738 196.796 374.702 196.717 374.665C196.638 374.627 196.559 374.59 196.48 374.553C196.204 374.402 196.079 374.054 196.228 373.738C196.378 373.461 196.727 373.336 197.004 373.487C197.083 373.524 197.202 373.599 197.281 373.676C197.559 373.865 197.645 374.215 197.456 374.492C197.419 374.61 197.227 374.731 197.031 374.736ZM194.204 374.056C193.891 374.063 193.652 373.833 193.606 373.522C193.56 373.211 193.826 372.892 194.139 372.885C194.256 372.883 194.373 372.88 194.49 372.878C194.802 372.871 195.082 373.138 195.089 373.45C195.096 373.763 194.867 374.042 194.516 374.049L194.477 374.05C194.398 374.013 194.32 374.014 194.204 374.056Z" fill="white"/>
<path d="M194.504 375.181C192.863 375.217 191.565 376.573 191.602 378.252C191.639 379.932 192.996 381.23 194.636 381.194C196.276 381.158 197.573 379.762 197.537 378.122C197.5 376.443 196.144 375.145 194.504 375.181Z" fill="#CCE3E3"/>
<path d="M194.5 375.181C192.86 375.217 191.562 376.574 191.599 378.253C191.636 379.932 192.993 381.23 194.633 381.194C196.273 381.158 197.57 379.762 197.534 378.122C197.497 376.443 196.14 375.145 194.5 375.181Z" fill="white"/>
<path d="M194.536 376.665C193.717 376.683 193.067 377.362 193.086 378.221C193.104 379.041 193.784 379.729 194.603 379.711C195.423 379.693 196.073 379.014 196.054 378.155C196.035 377.296 195.356 376.647 194.536 376.665Z" fill="#19004B"/>
<path fill-rule="evenodd" clip-rule="evenodd" d="M447.377 223.87C445.249 227.61 442.726 231.055 439.816 232.919C435.942 235.4 430.21 237.519 424.967 239.121C419.639 240.746 414.437 241.948 411.393 242.504L410.121 235.525C412.887 235.021 417.819 233.885 422.891 232.335C428.046 230.762 432.987 228.87 435.989 226.945C437.379 226.055 439.198 223.895 441.216 220.358C443.16 216.941 445.059 212.657 446.774 208.047C449.627 200.36 451.862 192.066 452.953 185.862C453.291 183.932 455.047 182.537 456.995 182.761C458.939 182.985 460.341 184.744 460.011 186.675C458.853 193.48 456.445 202.384 453.424 210.518C451.63 215.346 449.578 220.01 447.377 223.87Z" fill="#F0481D"/>
<path fill-rule="evenodd" clip-rule="evenodd" d="M446.644 223.451C448.812 219.644 450.844 215.025 452.63 210.223C455.635 202.132 458.027 193.279 459.178 186.533C459.418 185.109 458.389 183.774 456.899 183.602C455.427 183.433 454.053 184.492 453.786 186.008C452.688 192.267 450.437 200.611 447.568 208.341L446.774 208.047C449.627 200.36 451.862 192.066 452.953 185.862C453.291 183.932 455.051 182.537 456.995 182.761C458.939 182.985 460.341 184.744 460.011 186.675C458.853 193.48 456.445 202.384 453.424 210.518C451.63 215.346 449.578 220.01 447.377 223.87C445.249 227.61 442.726 231.055 439.816 232.919C435.942 235.4 430.215 237.519 424.967 239.121C420.097 240.607 415.334 241.739 412.227 242.347C411.936 242.403 411.662 242.455 411.405 242.502C411.401 242.503 411.397 242.504 411.393 242.504L410.121 235.525C410.134 235.522 410.151 235.519 410.168 235.516C412.942 235.008 417.849 233.876 422.895 232.335C428.046 230.762 432.987 228.87 435.989 226.945C437.379 226.055 439.198 223.895 441.216 220.358C443.16 216.941 445.064 212.657 446.774 208.047L447.568 208.341C445.845 212.978 443.926 217.307 441.953 220.776L441.953 220.777C439.923 224.338 438.019 226.652 436.445 227.658C433.339 229.649 428.305 231.568 423.142 233.145L446.644 223.451ZM411.101 236.2L412.073 241.514C415.151 240.911 419.884 239.787 424.72 238.311C429.955 236.713 435.591 234.621 439.356 232.207C442.086 230.459 444.528 227.166 446.644 223.451" fill="#FF724F"/>
<path d="M466.96 241.727C463.221 248.197 459.274 253.333 460.285 254.281C461.28 255.211 463.456 255.628 463.553 253.273C463.645 250.918 466.348 247.187 468.988 242.497C471.619 237.805 476.683 231.673 473.764 229.867C471.421 228.422 465.082 223.742 462.202 221.582C461.471 223.164 460.031 226.402 460.097 226.69C470.785 232.415 470.695 235.257 466.96 241.727Z" fill="#FF724F"/>
<path fill-rule="evenodd" clip-rule="evenodd" d="M466.07 230.708C464.647 229.548 462.664 228.305 459.999 226.876L460.198 226.503C462.876 227.936 464.885 229.195 466.338 230.38C467.79 231.565 468.691 232.688 469.136 233.853C470.022 236.194 469.004 238.608 467.14 241.833L466.96 241.726L467.14 241.833C465.982 243.84 464.796 245.729 463.749 247.398C463.111 248.415 462.522 249.352 462.024 250.183C461.358 251.289 460.854 252.209 460.573 252.907C460.432 253.258 460.354 253.538 460.341 253.75C460.325 253.963 460.37 254.07 460.43 254.126C460.893 254.559 461.628 254.864 462.231 254.798C462.527 254.766 462.787 254.647 462.977 254.418C463.175 254.187 463.319 253.821 463.341 253.264C463.365 252.64 463.561 251.939 463.875 251.175C464.188 250.408 464.622 249.566 465.132 248.657C465.612 247.796 466.167 246.87 466.755 245.888C466.788 245.832 466.821 245.775 466.858 245.719C467.482 244.673 468.144 243.562 468.804 242.392C469.394 241.335 470.11 240.205 470.83 239.074C470.912 238.944 470.994 238.814 471.076 238.684C471.878 237.421 472.658 236.165 473.272 235.001C473.881 233.833 474.307 232.779 474.411 231.917C474.46 231.489 474.427 231.12 474.306 230.812C474.189 230.507 473.98 230.249 473.654 230.046L473.875 229.686C474.278 229.935 474.548 230.264 474.7 230.659C474.853 231.049 474.884 231.492 474.831 231.966C474.72 232.909 474.262 234.02 473.645 235.198C473.027 236.379 472.234 237.649 471.432 238.91C471.35 239.041 471.268 239.17 471.187 239.3C470.471 240.433 469.759 241.553 469.172 242.6C468.508 243.775 467.847 244.89 467.218 245.936C467.185 245.992 467.153 246.048 467.12 246.103C466.532 247.087 465.981 248.008 465.5 248.863C464.991 249.768 464.569 250.592 464.268 251.335C463.962 252.079 463.786 252.727 463.764 253.281C463.736 253.901 463.572 254.367 463.304 254.69C463.028 255.017 462.663 255.177 462.279 255.219C461.523 255.301 460.672 254.932 460.141 254.435C459.946 254.254 459.898 253.993 459.917 253.718C459.937 253.443 460.035 253.116 460.18 252.75C460.473 252.017 460.998 251.071 461.659 249.965C462.17 249.118 462.759 248.176 463.401 247.156C464.444 245.495 465.618 243.626 466.776 241.621C468.652 238.375 469.546 236.133 468.737 234.003C468.333 232.934 467.492 231.868 466.07 230.708Z" fill="#00FFFF"/>
<path fill-rule="evenodd" clip-rule="evenodd" d="M473.115 197.511C474.821 198.471 475.428 200.633 474.466 202.341L451.711 242.872C450.546 244.947 448.568 246.441 446.248 246.989L427.818 251.338C424.205 252.192 418.922 253.191 413.86 249.788C408.992 246.517 405.224 239.781 402.441 227.987C401.988 226.08 403.17 224.17 405.077 223.719C406.985 223.269 408.895 224.45 409.344 226.357C412.028 237.728 415.268 242.186 417.82 243.9C420.171 245.482 422.714 245.254 426.193 244.433L444.618 240.084C445.001 239.993 445.33 239.747 445.526 239.398L468.281 198.868C469.242 197.159 471.405 196.552 473.115 197.511Z" fill="#F0481D"/>
<path fill-rule="evenodd" clip-rule="evenodd" d="M468.649 199.074C469.081 198.307 469.789 197.793 470.577 197.584L468.649 199.074ZM468.649 199.074L445.894 239.605L445.894 239.606C445.642 240.056 445.217 240.377 444.716 240.495L426.291 244.844C422.804 245.667 420.096 245.941 417.582 244.25L418.054 243.548C420.245 245.021 422.624 244.839 426.095 244.02L444.52 239.671C444.79 239.608 445.019 239.437 445.157 239.189C445.157 239.189 445.157 239.189 445.161 239.188L467.912 198.66L467.912 198.659C468.462 197.685 469.358 197.031 470.36 196.766L470.577 197.584L468.649 199.074ZM474.097 202.133C474.472 201.468 474.579 200.725 474.445 200.03L475.28 199.874C475.443 200.757 475.311 201.703 474.835 202.548L474.097 202.133ZM474.835 202.548L452.08 243.078C450.858 245.256 448.78 246.824 446.346 247.4L427.916 251.749C424.29 252.605 418.848 253.649 413.622 250.139C408.616 246.775 404.816 239.902 402.028 228.083L402.854 227.889C405.627 239.657 409.367 246.258 414.094 249.436C418.997 252.73 424.115 251.777 427.724 250.925L446.15 246.576C448.352 246.055 450.234 244.635 451.342 242.663L474.097 202.133L474.097 202.133" fill="#FF562B"/>
<path d="M462.51 458.047C512.389 456.948 551.933 415.623 550.834 365.743C549.735 315.865 508.409 276.321 458.53 277.419C408.651 278.518 369.107 319.844 370.206 369.723C371.305 419.602 412.63 459.146 462.51 458.047Z" fill="url(#paint3_linear_108_753)"/>
<path fill-rule="evenodd" clip-rule="evenodd" d="M457.472 277.443C457.46 276.859 457.923 276.374 458.507 276.362C508.97 275.25 550.78 315.257 551.892 365.72C553.004 416.183 512.996 457.993 462.533 459.105C461.949 459.118 461.465 458.654 461.452 458.07C461.439 457.486 461.902 457.002 462.486 456.989C511.782 455.903 550.862 415.062 549.776 365.767C548.69 316.472 507.849 277.391 458.554 278.477C457.97 278.49 457.485 278.027 457.472 277.443Z" fill="#050505"/>
<path d="M462.34 450.532C508.072 449.525 544.327 411.637 543.319 365.908C542.312 320.179 504.424 283.924 458.691 284.932C412.967 285.939 376.71 323.827 377.717 369.557C378.724 415.285 416.616 451.54 462.34 450.532Z" fill="#242424"/>
<path d="M462.28 447.803C506.502 446.829 541.56 410.191 540.586 365.969C539.611 321.748 502.974 286.69 458.752 287.664C414.534 288.638 379.475 325.276 380.449 369.497C381.424 413.719 418.062 448.777 462.28 447.803Z" fill="#202020"/>
<path d="M462.212 444.706C504.72 443.769 538.425 408.55 537.488 366.038C536.552 323.527 501.328 289.825 458.82 290.762C416.312 291.698 382.607 326.919 383.543 369.429C384.48 411.941 419.703 445.642 462.212 444.706Z" fill="#FFFBF6"/>
<path d="M463.743 444.657L462.111 370.58L444.418 442.96L443.503 442.739L461.196 370.358L425.373 435.691L424.546 435.24L460.373 369.904L408.858 423.74L408.179 423.086L459.69 369.254L395.999 407.92L395.512 407.118L459.202 368.449L387.673 389.314L387.412 388.41L458.941 367.545L384.448 369.186L384.427 368.244L458.92 366.603L386.537 348.908L386.763 347.994L459.142 365.689L393.81 329.864L394.261 329.038L459.593 364.864L405.893 313.476C406.114 313.253 406.337 313.032 406.56 312.812L460.247 364.183L421.94 301.088C422.212 300.931 422.485 300.775 422.759 300.62L461.049 363.695L440.535 293.363C440.838 293.281 441.142 293.202 441.447 293.124L461.954 363.432L460.352 290.743C460.667 290.742 460.982 290.743 461.296 290.746L462.897 363.41L480.049 293.242C480.353 293.322 480.657 293.403 480.959 293.486L463.808 363.635L498.34 300.662C498.614 300.817 498.887 300.973 499.158 301.131L464.635 364.086L514.072 312.424C514.297 312.642 514.521 312.861 514.744 313.082L465.314 364.738L526.302 327.713C526.465 327.981 526.627 328.25 526.787 328.519L465.806 365.542L534.268 345.571C534.358 345.872 534.447 346.173 534.533 346.474L466.067 366.446L537.454 364.873C537.466 365.186 537.475 365.5 537.483 365.814L466.088 367.387L535.699 384.405C535.631 384.712 535.561 385.018 535.49 385.323L465.862 368.302L529.009 402.928C528.865 403.206 528.72 403.483 528.574 403.76L465.415 369.128L517.761 419.217C517.551 419.451 517.339 419.683 517.126 419.915L464.761 369.807L502.636 432.193C502.374 432.365 502.11 432.536 501.845 432.705L463.955 370.296L484.551 440.898C484.253 440.996 483.954 441.092 483.654 441.186L463.055 370.561L464.686 444.612C464.372 444.629 464.058 444.644 463.743 444.657Z" fill="#EEE5D2"/>
<path d="M460.764 378.789C466.869 378.655 471.711 373.595 471.576 367.489C471.442 361.383 466.382 356.542 460.276 356.676C454.171 356.811 449.329 361.87 449.463 367.976C449.598 374.082 454.658 378.924 460.764 378.789Z" fill="#FF562B"/>
<path d="M460.707 376.427C465.51 376.321 469.313 372.344 469.207 367.542C469.101 362.741 465.127 358.934 460.324 359.04C455.526 359.146 451.715 363.124 451.82 367.925C451.926 372.727 455.909 376.533 460.707 376.427Z" fill="#12C65A"/>
<path d="M460.63 372.735C463.389 372.675 465.582 370.386 465.521 367.623C465.461 364.861 463.169 362.67 460.41 362.731C457.647 362.792 455.453 365.081 455.514 367.844C455.575 370.606 457.867 372.796 460.63 372.735Z" fill="#FFFBF6"/>
<path d="M152.624 457.317C202.503 456.219 242.047 414.893 240.948 365.013C239.849 315.134 198.524 275.591 148.645 276.69C98.7661 277.788 59.2225 319.114 60.3214 368.992C61.4203 418.872 102.746 458.416 152.624 457.317Z" fill="url(#paint4_linear_108_753)"/>
<path fill-rule="evenodd" clip-rule="evenodd" d="M59.2636 369.016C58.1519 318.553 98.1585 276.743 148.622 275.632C199.085 274.52 240.894 314.527 242.006 364.99C242.018 365.574 241.555 366.058 240.971 366.071C240.387 366.084 239.903 365.621 239.89 365.036C238.804 315.742 197.963 276.661 148.668 277.747C99.3738 278.833 60.2933 319.675 61.3793 368.969C62.4653 418.265 103.307 457.346 152.601 456.26C153.185 456.247 153.669 456.71 153.682 457.294C153.695 457.878 153.232 458.362 152.648 458.375C102.185 459.487 60.3754 419.48 59.2636 369.016Z" fill="#252525"/>
<path d="M152.46 449.803C198.19 448.795 234.444 410.907 233.436 365.178C232.429 319.449 194.541 283.194 148.811 284.202C103.082 285.209 66.8276 323.097 67.8351 368.827C68.8425 414.556 106.73 450.81 152.46 449.803Z" fill="#252525"/>
<path d="M152.399 447.073C196.619 446.099 231.678 409.461 230.703 365.239C229.729 321.018 193.091 285.96 148.871 286.934C104.65 287.908 69.5918 324.546 70.566 368.767C71.5403 412.989 108.178 448.048 152.399 447.073Z" fill="#1B1B1B"/>
<path d="M152.331 443.972C194.841 443.035 228.544 407.816 227.607 365.306C226.671 322.796 191.45 289.093 148.939 290.03C106.429 290.966 72.7267 326.187 73.6632 368.698C74.5998 411.207 109.82 444.908 152.331 443.972Z" fill="#FFFBF6"/>
<path d="M150.176 370.509L151.781 443.362L152.702 443.341L151.097 370.49L171.502 440.442L172.386 440.186L151.981 370.231L189.796 432.521L190.583 432.042L152.767 369.753L205.416 420.132L206.053 419.466L153.405 369.088L217.297 404.122L217.74 403.317L153.846 368.28L224.631 385.585L224.849 384.691L154.066 367.386L226.917 365.781L226.896 364.861L154.046 366.466L223.999 346.061L223.741 345.177L153.788 365.582L216.076 327.767L215.598 326.98L153.309 364.795L203.688 312.147L203.023 311.51L152.645 364.158L187.68 300.265L186.873 299.823L151.837 363.717L169.142 292.932L168.248 292.713L150.943 363.497L149.338 290.646L148.417 290.667L150.022 363.518L129.617 293.564L128.733 293.822L149.138 363.775L111.323 301.487L110.536 301.965L148.351 364.252L95.7033 313.875L95.0669 314.54L147.716 364.919L83.8214 329.883L83.3791 330.69L147.271 365.725L76.4882 348.42L76.2696 349.315L147.054 366.62L74.2029 368.225L74.2231 369.145L147.075 367.54L77.1211 387.946L77.3789 388.83L147.332 368.424L85.0439 406.24L85.5214 407.026L147.809 369.212L97.4312 421.86L98.0964 422.497L148.475 369.847L113.44 433.741L114.247 434.185L149.282 370.291L131.977 441.076L132.871 441.293L150.176 370.509Z" fill="#EEE5D2"/>
<path fill-rule="evenodd" clip-rule="evenodd" d="M151.944 360.394C148.092 360.619 145.048 361.627 142.854 364.32C142.027 365.336 141.573 366.075 141.366 366.693C141.168 367.279 141.182 367.785 141.369 368.375C141.568 369 141.954 369.701 142.521 370.675C142.591 370.796 142.664 370.921 142.74 371.049C143.239 371.904 143.838 372.928 144.489 374.193C148.518 376.977 149.971 379.591 150.021 381.89C150.07 384.185 148.711 385.929 147.72 386.93C143.388 391.312 142.464 395.156 143.451 397.978C144.447 400.821 147.487 402.934 151.751 403.615C153.474 403.89 160.522 401.123 170.995 401.925C178.096 402.467 186.716 403.107 196.194 403.813C200.666 404.142 205.331 404.488 210.116 404.848C239.965 407.073 274.547 409.719 296.964 411.956L296.839 413.212C274.441 410.975 239.875 408.328 210.022 406.103C205.238 405.747 200.574 405.401 196.101 405.068C186.622 404.362 178 403.722 170.899 403.18C160.466 402.381 153.342 405.142 151.552 404.86C147.034 404.138 143.469 401.841 142.263 398.393C141.049 394.923 142.327 390.593 146.825 386.045C147.744 385.116 148.8 383.69 148.762 381.917C148.724 380.174 147.618 377.852 143.646 375.142L143.513 375.051L143.441 374.908C142.779 373.611 142.172 372.574 141.654 371.688C141.578 371.558 141.504 371.432 141.433 371.308C140.879 370.358 140.416 369.536 140.169 368.756C139.91 367.94 139.88 367.158 140.172 366.291C140.453 365.456 141.021 364.577 141.878 363.525C144.385 360.447 147.841 359.373 151.87 359.137C154.838 358.963 158.203 359.243 161.812 359.543C163.06 359.647 164.337 359.753 165.636 359.844C213.799 363.207 249.232 364.912 289.27 366.837C292.923 367.013 296.616 367.191 300.359 367.372L300.299 368.63C296.555 368.449 292.862 368.271 289.208 368.096C249.171 366.17 213.725 364.464 165.549 361.1C164.199 361.006 162.891 360.897 161.626 360.792C158.049 360.495 154.815 360.226 151.944 360.394Z" fill="#12C65A"/>
<path d="M148.956 401.437C152.07 402.185 155.199 400.262 155.944 397.15C156.69 394.035 154.769 390.906 151.655 390.161C148.541 389.416 145.412 391.336 144.667 394.45C143.921 397.564 145.842 400.693 148.956 401.437Z" fill="#FF562B"/>
<path fill-rule="evenodd" clip-rule="evenodd" d="M155.121 396.953C155.758 394.293 154.118 391.621 151.459 390.984C148.799 390.348 146.127 391.988 145.49 394.648C144.854 397.307 146.494 399.98 149.153 400.615C151.813 401.251 154.485 399.613 155.121 396.953ZM144.667 394.45L144.673 394.452L144.667 394.45ZM155.945 397.15C155.199 400.262 152.071 402.185 148.956 401.437C145.842 400.693 143.922 397.564 144.667 394.45C145.413 391.336 148.542 389.416 151.656 390.161C154.77 390.906 156.69 394.035 155.945 397.15Z" fill="#FFC6B8"/>
<path fill-rule="evenodd" clip-rule="evenodd" d="M151.633 398.334C152.037 398.013 152.341 397.56 152.47 397.02C152.777 395.737 151.986 394.449 150.704 394.142C150.121 394.003 149.537 394.09 149.044 394.347C148.373 393.877 147.61 393.517 146.809 393.256C145.203 392.731 143.392 392.578 141.704 392.725L141.075 392.78L141.081 393.411C141.124 397.754 142.326 400.431 144.17 402.093C145.988 403.729 148.318 404.266 150.368 404.581L150.951 404.67L151.124 404.107C151.865 401.686 151.897 399.746 151.633 398.334ZM148.05 395.323C147.953 395.503 147.876 395.699 147.827 395.908C147.52 397.191 148.31 398.479 149.592 398.786C149.842 398.845 150.093 398.864 150.336 398.844C150.49 399.879 150.47 401.306 149.983 403.133C148.18 402.817 146.436 402.297 145.083 401.078C143.688 399.826 142.608 397.733 142.46 394.044C143.801 393.996 145.174 394.157 146.385 394.552C146.998 394.753 147.559 395.01 148.05 395.323Z" fill="#12C65A"/>
<path d="M150.88 378.059C156.986 377.924 161.827 372.865 161.692 366.759C161.558 360.653 156.499 355.812 150.393 355.946C144.286 356.081 139.445 361.14 139.58 367.246C139.714 373.352 144.774 378.193 150.88 378.059Z" fill="#FF562B"/>
<path d="M150.827 375.695C155.628 375.589 159.435 371.612 159.329 366.81C159.223 362.009 155.245 358.202 150.444 358.308C145.643 358.414 141.836 362.392 141.942 367.193C142.047 371.995 146.026 375.801 150.827 375.695Z" fill="#12C65A"/>
<path d="M150.747 372.004C153.51 371.943 155.7 369.654 155.639 366.892C155.578 364.128 153.289 361.938 150.526 361.999C147.764 362.06 145.574 364.349 145.634 367.112C145.695 369.875 147.984 372.065 150.747 372.004Z" fill="white"/>
<path fill-rule="evenodd" clip-rule="evenodd" d="M382.913 261.865C380.049 261.966 377.083 262.071 374.116 262.064C365.529 262.044 340.071 263.234 314.554 264.478C310.565 264.673 306.576 264.869 302.651 265.062C281.477 266.101 262.147 267.051 254.791 267.213C246.317 267.399 237.034 272.88 227.651 280.946C218.29 288.991 208.946 299.503 200.35 309.559C191.667 319.718 181.145 325.505 171.39 330.216C169.815 330.977 168.263 331.707 166.744 332.423C163.542 333.931 160.482 335.373 157.634 336.889C153.445 339.118 149.783 341.475 146.921 344.36C142.383 348.936 141.131 354.151 141.402 358.833C141.674 363.536 143.486 367.693 145.063 370.063C145.255 370.353 145.177 370.743 144.887 370.936C144.598 371.128 144.207 371.05 144.014 370.76C142.334 368.233 140.432 363.864 140.144 358.905C139.856 353.925 141.2 348.341 146.027 343.473C149.019 340.457 152.809 338.03 157.043 335.777C159.917 334.247 163.025 332.783 166.243 331.267C167.756 330.554 169.293 329.83 170.842 329.082C180.56 324.389 190.885 318.695 199.393 308.741C207.989 298.684 217.389 288.105 226.829 279.991C236.247 271.897 245.821 266.15 254.763 265.953C262.1 265.792 281.406 264.844 302.584 263.804C306.511 263.611 310.501 263.416 314.492 263.221C339.987 261.977 365.491 260.784 374.119 260.805C377.062 260.812 379.987 260.708 382.839 260.607C384.146 260.561 385.441 260.515 386.714 260.481C390.738 260.373 394.544 260.38 397.856 260.868C401.165 261.356 404.048 262.333 406.169 264.223C408.306 266.131 409.599 268.897 409.846 272.797C409.866 273.144 409.606 273.444 409.259 273.466C408.909 273.488 408.615 273.224 408.59 272.877C408.358 269.231 407.174 266.804 405.33 265.164C403.469 263.507 400.866 262.585 397.672 262.114C394.478 261.643 390.765 261.632 386.746 261.74C385.498 261.774 384.216 261.819 382.913 261.865Z" fill="#781800"/>
<path d="M197.654 222.116C190.278 221.677 187.79 226.467 187.469 228.917C198.767 229.984 207.722 235.612 214.174 238.476C220.627 241.34 223.97 239.576 225.264 238.608C226.558 237.639 230.265 235.303 237.373 233.831C244.481 232.359 259.719 233.151 265.007 234.35C270.295 235.548 276.339 236.919 272.854 232.298C269.37 227.676 255.063 226.488 251.122 226.763C247.183 227.038 233.622 225.645 223.651 225.114C213.68 224.581 206.874 222.664 197.654 222.116Z" fill="#FFA58E"/>
<path fill-rule="evenodd" clip-rule="evenodd" d="M245.913 238.817C242.411 240.136 238.681 240.754 235.835 240.817C233.206 240.875 230.985 241.241 228.783 241.662C228.409 241.733 228.035 241.806 227.657 241.88C225.828 242.239 223.948 242.607 221.873 242.813C219.595 243.038 217.889 242.298 216.713 241.229C215.574 240.191 214.967 238.88 214.75 237.941L216.946 237.433C217.075 237.99 217.475 238.874 218.231 239.561C218.95 240.216 220.029 240.73 221.65 240.569C223.609 240.375 225.37 240.031 227.194 239.674C227.579 239.598 227.967 239.522 228.36 239.447C230.603 239.019 232.969 238.626 235.786 238.563C238.388 238.506 241.865 237.933 245.119 236.707C248.39 235.475 251.289 233.639 252.922 231.157L254.806 232.395C252.802 235.442 249.398 237.504 245.913 238.817Z" fill="#F93200"/>
<path d="M193.504 229.933C201.998 231.974 208.918 236.143 214.174 238.477C216.616 239.561 218.613 239.982 220.222 240.034C220.222 240.034 221.15 230.994 216.622 230.154C213.176 229.516 210.946 228.401 208.104 227.335C205.262 226.271 199.786 225.076 196.997 226.453C194.767 227.554 193.739 229.232 193.504 229.933Z" fill="#FF8C6F"/>
<path fill-rule="evenodd" clip-rule="evenodd" d="M187.469 228.917C187.751 228.944 188.032 228.973 188.311 229.006C196.856 229.991 204.031 233.534 209.763 236.365C211.344 237.146 212.815 237.872 214.175 238.476C220.627 241.34 223.97 239.576 225.265 238.608C226.559 237.639 230.265 235.303 237.373 233.831C244.482 232.359 259.719 233.151 265.008 234.35C270.296 235.548 276.339 236.919 272.855 232.297C269.37 227.676 255.063 226.488 251.123 226.763C248.703 226.932 242.653 226.472 236.035 225.968C231.879 225.652 227.498 225.319 223.652 225.114C218.487 224.838 214.171 224.191 209.929 223.555C205.981 222.962 202.098 222.38 197.654 222.116C191.047 221.723 188.362 225.526 187.643 228.083C187.559 228.381 187.502 228.662 187.469 228.917ZM188.498 228.175C197.173 229.196 204.491 232.813 210.208 235.638C211.765 236.408 213.204 237.119 214.518 237.702C217.634 239.086 219.931 239.322 221.559 239.138C223.181 238.954 224.202 238.345 224.757 237.93C226.151 236.887 229.973 234.499 237.202 233.002C240.859 232.245 246.529 232.078 251.899 232.243C257.272 232.407 262.469 232.906 265.195 233.524C266.521 233.825 267.87 234.13 269.104 234.351C270.349 234.574 271.412 234.698 272.179 234.661C272.565 234.642 272.811 234.584 272.951 234.521C273 234.499 273.025 234.482 273.036 234.472C273.04 234.441 273.046 234.323 272.947 234.071C272.828 233.768 272.59 233.353 272.179 232.807C271.448 231.838 270.075 230.969 268.229 230.231C266.406 229.502 264.226 228.941 262.004 228.527C257.55 227.696 253.062 227.476 251.182 227.608C249.135 227.75 244.683 227.463 239.586 227.085C238.411 226.998 237.197 226.905 235.965 226.812C231.81 226.496 227.442 226.163 223.607 225.959C218.577 225.69 214.348 225.073 210.246 224.458C210.101 224.436 209.957 224.415 209.813 224.393C205.859 223.8 202.009 223.223 197.604 222.961C194.121 222.754 191.886 223.778 190.488 225.058C189.41 226.043 188.794 227.211 188.498 228.175ZM273.045 234.462C273.046 234.462 273.045 234.465 273.04 234.469C273.043 234.465 273.045 234.462 273.045 234.462Z" fill="#FF562B"/>
<path d="M223.514 229.331C222.261 225.831 218.656 221.67 217.01 220.027C213.501 213.176 221.246 212.166 224.025 214.414C226.803 216.662 230.947 223.709 231.842 226.208C232.737 228.707 234.578 236.015 236.805 241.844C238.588 246.507 245.949 269.354 249.407 280.195L241.083 283.527C237.336 272.273 229.522 248.597 228.244 243.922C226.645 238.079 225.079 233.705 223.514 229.331Z" fill="#FF562B"/>
<path fill-rule="evenodd" clip-rule="evenodd" d="M221.086 223.475C222.368 225.181 223.641 227.176 224.31 229.045L224.313 229.051C225.879 233.425 227.453 237.824 229.06 243.699C230.3 248.23 237.754 270.839 241.602 282.408L248.361 279.702C244.81 268.578 237.746 246.676 236.015 242.146C234.889 239.2 233.864 235.89 233.013 233.018C232.767 232.19 232.537 231.403 232.323 230.672C231.789 228.842 231.358 227.365 231.046 226.493C230.63 225.334 229.411 223.011 227.925 220.67C226.431 218.317 224.764 216.101 223.492 215.072C222.958 214.639 222.122 214.323 221.172 214.221C220.228 214.119 219.265 214.24 218.506 214.58C217.76 214.915 217.248 215.439 217.052 216.164C216.855 216.893 216.937 217.981 217.705 219.525C218.558 220.387 219.846 221.821 221.086 223.475ZM217.01 220.027C218.656 221.67 222.261 225.831 223.514 229.331C225.079 233.705 226.645 238.079 228.244 243.922C229.493 248.488 236.976 271.183 240.815 282.723C240.906 282.997 240.995 283.266 241.083 283.527L249.407 280.195C245.949 269.354 238.588 246.507 236.805 241.844C235.377 238.108 234.109 233.764 233.146 230.468C232.607 228.622 232.163 227.105 231.842 226.208C230.947 223.709 226.803 216.662 224.025 214.414C221.246 212.166 213.501 213.176 217.01 220.027Z" fill="#FF8C6E"/>
<path d="M233.559 248.385C236.775 248.314 239.324 245.65 239.253 242.434C239.183 239.219 236.518 236.669 233.303 236.74C230.087 236.811 227.538 239.475 227.609 242.691C227.68 245.907 230.344 248.456 233.559 248.385Z" fill="#F93200"/>
<path fill-rule="evenodd" clip-rule="evenodd" d="M226.876 263.093C230.791 260.307 234.225 258.922 236.28 258.65L236.524 260.501C234.888 260.717 231.744 261.921 227.959 264.614C225.328 266.487 222.417 269.059 219.527 272.469C218.286 273.932 217.348 276.724 216.138 278.507L213.012 275.988C214.168 274.283 216.635 273.017 217.825 271.592C220.906 267.9 224.034 265.116 226.876 263.093Z" fill="#FF562B"/>
<path d="M206.777 296.979L196.904 289.924L193.966 294.036L203.839 301.092L206.777 296.979Z" fill="#FFCEC1"/>
<path d="M210.731 284.07L208.661 282.516L199.033 295.347L201.104 296.9L210.731 284.07Z" fill="#FF562B"/>
<path d="M212.338 281.252L211.679 280.711C210.604 279.83 209.017 279.986 208.135 281.062L204.377 285.645C203.495 286.721 203.652 288.308 204.728 289.19L205.387 289.73C206.463 290.612 208.05 290.455 208.932 289.379L212.689 284.796C213.571 283.721 213.414 282.134 212.338 281.252Z" fill="#FFCEC1"/>
<path d="M216.179 276.879C216.431 276.585 216.397 276.144 216.104 275.892C215.811 275.64 215.368 275.673 215.117 275.967L210.557 281.279C210.305 281.573 210.339 282.015 210.633 282.267C210.926 282.519 211.368 282.485 211.62 282.192L216.179 276.879Z" fill="#FF562B"/>
<path fill-rule="evenodd" clip-rule="evenodd" d="M411.878 238.017C411.883 237.67 412.169 237.392 412.516 237.398C417.158 237.474 422.96 239.508 424.689 245.568C425.543 248.566 425.371 252.463 423.652 257.45C421.933 262.437 418.659 268.552 413.265 276.017C413.06 276.299 412.663 276.362 412.379 276.158C412.1 275.954 412.036 275.561 412.237 275.279C417.599 267.874 420.798 261.871 422.461 257.039C424.124 252.207 424.244 248.586 423.478 245.915C421.973 240.636 416.897 238.729 412.493 238.657C412.146 238.652 411.873 238.365 411.878 238.017ZM409.814 239.827L410.541 239.984C413.816 240.69 417.662 243.278 418.56 248.688C419.453 254.042 417.427 262.012 409.425 273.475L408.177 275.259L409.814 239.827ZM411 241.404L409.639 270.923C416.519 260.558 418.082 253.494 417.316 248.895C416.588 244.488 413.689 242.227 411 241.404Z" fill="#993F06"/>
<path fill-rule="evenodd" clip-rule="evenodd" d="M402.679 235.357C402.684 235.01 402.97 234.733 403.318 234.74C407.731 234.823 410.91 236.377 413.144 238.978C415.355 241.551 416.597 245.092 417.282 249.066C418.321 255.116 418.096 262.384 417.886 269.173C417.822 271.275 417.757 273.331 417.733 275.29C417.706 277.374 417.651 279.643 417.585 282.049C417.39 289.343 417.168 297.886 417.755 306.271C418.534 317.436 420.751 328.155 426.274 335.163C433.726 344.62 450.515 365.536 453.101 368.606C453.327 368.872 453.294 369.269 453.023 369.493C452.762 369.718 452.363 369.684 452.137 369.418C449.533 366.33 432.735 345.398 425.283 335.943L425.779 335.553L425.283 335.943C419.513 328.617 417.284 317.563 416.499 306.359C415.911 297.907 416.136 289.272 416.326 281.968C416.388 279.576 416.448 277.328 416.475 275.275C416.502 273.256 416.562 271.16 416.63 269.033C416.836 262.27 417.057 255.192 416.038 249.279C415.372 245.406 414.191 242.124 412.188 239.799C410.211 237.498 407.386 236.075 403.295 235.999C402.947 235.992 402.67 235.706 402.679 235.357Z" fill="#FF724F"/>
<path fill-rule="evenodd" clip-rule="evenodd" d="M402.768 229.175C417.814 272.08 444.354 323.791 463.136 364.259C463.195 364.423 463.262 364.584 463.324 364.742C464.273 367.072 464.994 368.839 462.287 370.113C459.4 371.473 458.074 369.881 456.382 366.677C455.874 365.72 453.026 360.797 449.087 353.976C431.628 323.789 397.842 261.37 397.842 261.37L281.979 396.126L275.19 396.924C244.281 390.534 166.469 374.647 149.977 370.674C148.316 370.274 147.424 368.407 147.73 366.726C148.088 364.76 149.932 363.675 151.904 364.004L271.989 384.029L232.94 259.127L240.052 258.322L392.439 245.532C390.229 238.616 393.179 231.665 400.204 229.84L402.768 229.175ZM307.839 260.718C290.759 262.132 260.161 263.929 246.674 264.659L281.493 374.096C308.861 341.404 369.3 271.949 379.668 260.052C363.76 258.782 329.19 258.951 307.839 260.718Z" fill="#FF562B"/>
<path d="M307.505 260.727C290.425 262.14 259.827 263.938 246.339 264.667L281.16 374.104C301.674 349.599 329.503 331.272 354.259 311.208L281.645 396.134L274.857 396.932C243.947 390.543 178.005 376.761 161.513 372.788C159.852 372.387 158.96 370.521 159.266 368.839C159.624 366.873 161.468 365.789 163.44 366.117L271.656 384.037L256.321 334.989L246.339 264.667L240.886 283.433L232.606 259.136L239.718 258.331L366.884 247.613C398.752 245.802 399.556 256.732 395.973 262.423C375.363 286.526 349.97 305.202 324.242 323.626C348.66 295.296 373.087 267.229 379.335 260.061C363.426 258.79 328.857 258.96 307.505 260.727Z" fill="#FF562B"/>
<path d="M243.778 257.989L268.527 255.903C281.51 260.049 291.504 261.342 297.408 261.5C280.194 262.74 257.456 264.066 246.341 264.667L246.294 264.815C244.993 262.832 243.947 260.306 243.778 257.989Z" fill="#FFA58E"/>
<path d="M246.383 264.945L246.343 264.666L246.475 265.081C246.444 265.036 246.413 264.99 246.383 264.945Z" fill="#C7DD7B"/>
<path d="M331.063 255.539C317.484 255.553 309.496 254.705 307.199 254.28C310.087 254.217 332.789 251.932 353.379 252.192C369.851 252.4 375.968 255.739 376.967 257.383C367.323 256.762 344.641 255.525 331.063 255.539Z" fill="#FFA58E"/>
<path d="M456.048 366.685C457.739 369.889 459.066 371.48 461.957 370.12C464.659 368.847 463.943 367.079 462.994 364.749C424.144 292.872 419.627 287.886 410.12 283.897C425.141 312.776 450.11 355.435 456.048 366.685Z" fill="#FF562B"/>
<path d="M149.198 370.868C147.881 372.072 147.567 373.073 147.574 373.423C146.526 373.446 145.69 373.674 145.503 374.728C145.317 375.782 145.111 375.996 144.286 376.644C143.46 377.292 142.42 377.735 141.777 377.119C141.133 376.503 140.496 376.098 139.88 376.741C139.264 377.385 139.698 378.005 140.994 379.656C142.29 381.307 143.083 379.19 144.118 378.537C145.154 377.885 147.485 378.883 148.343 379.704C149.201 380.524 148.804 381.583 150.692 381.541C152.581 381.5 153.019 382.33 154.073 382.516C155.127 382.703 157.43 382.442 157.795 379.916C158.159 377.388 155.814 375.76 153.851 372.445C151.889 369.129 150.844 369.362 149.198 370.868Z" fill="#FF562B"/>
<path fill-rule="evenodd" clip-rule="evenodd" d="M156.015 355.945C151.074 353.429 146.34 352.584 142.831 353.569C139.277 354.567 137.004 356.495 135.752 358.777C134.496 361.066 134.247 363.746 134.811 366.273C135.262 368.298 136.354 370.555 137.553 372.57C138.75 374.58 140.036 376.318 140.849 377.298L140.203 377.834C139.363 376.822 138.052 375.048 136.832 373C135.616 370.956 134.471 368.609 133.991 366.456C133.39 363.76 133.648 360.866 135.016 358.374C136.388 355.874 138.856 353.813 142.604 352.761C146.398 351.696 151.36 352.632 156.397 355.196C161.446 357.768 166.624 362.001 170.878 367.624L170.208 368.131C166.028 362.604 160.945 358.455 156.015 355.945Z" fill="#12C65A"/>
<path d="M150.931 373.348C151.742 373.331 152.385 372.658 152.367 371.847C152.349 371.036 151.677 370.393 150.866 370.411C150.055 370.428 149.412 371.1 149.43 371.912C149.447 372.723 150.119 373.366 150.931 373.348Z" fill="#00FFFF"/>
<path fill-rule="evenodd" clip-rule="evenodd" d="M151.432 392.388C151.497 392.176 151.728 390.618 153.52 386.099C153.785 385.427 154.31 384.452 154.836 383.467C155.473 382.272 156.118 381.063 156.332 380.369C156.61 379.472 156.373 379.111 155.902 378.39C155.706 378.091 155.471 377.73 155.214 377.244C154.337 375.584 152.444 375.416 150.98 375.658C149.801 375.853 148.751 375.773 148.278 375.736C148.164 375.728 148.083 375.722 148.042 375.723C147.832 375.727 147.212 376.161 148.275 376.767C149.338 377.373 150.191 377.985 151.482 379.426C151.602 379.559 151.721 379.689 151.838 379.816C152.99 381.067 153.944 382.104 152.847 384.224C152.799 384.319 152.75 384.412 152.703 384.505C151.576 386.68 149.556 392.253 149.976 393.05C150.415 393.88 150.843 394.29 151.464 393.857C152.084 393.423 151.866 393.008 151.432 392.388ZM154.238 380.624C153.712 379.628 152.005 377.735 151.217 376.912C152.047 376.474 153.105 376.87 153.972 378.111C154.839 379.352 155.068 380.186 154.238 380.624Z" fill="#12C65A"/>
<path d="M233.916 263.318L150.493 363.972C150.843 363.938 151.205 363.951 151.571 364.012L156.334 364.806L236.537 271.7L233.916 263.318Z" fill="#FF562B"/>
<path fill-rule="evenodd" clip-rule="evenodd" d="M150.493 363.972C150.839 363.939 151.198 363.951 151.561 364.01C151.564 364.011 151.568 364.012 151.571 364.012L156.333 364.806L236.804 271.373L234.183 262.991L150.493 363.972ZM152.186 363.257L156.003 363.893L235.856 271.177L233.84 264.731L152.186 363.257Z" fill="#FF562B"/>
<path d="M459.203 364.623L450.671 366.097C449.553 366.289 448.802 367.349 448.996 368.464C449.19 369.58 450.252 370.327 451.365 370.134L459.901 368.66C461.019 368.468 461.762 367.408 461.568 366.293C461.378 365.178 460.32 364.43 459.203 364.623Z" fill="#FFFBF6"/>
<path d="M297.626 393.702C300.012 393.002 301.378 390.501 300.678 388.114C299.978 385.729 297.477 384.362 295.091 385.062C293.017 385.67 291.714 387.64 291.868 389.712L262.576 425.443L267.387 429.215L297.626 393.702Z" fill="#FFC700"/>
<path d="M294.709 394.991L292.515 393.183L280.763 407.449L282.958 409.255L294.709 394.991Z" fill="#FEF0C2"/>
<path d="M279.54 431.128L279.54 431.128C280.072 431.353 280.32 431.97 280.093 432.504L277.535 438.495C277.309 439.03 276.693 439.276 276.161 439.051L247.151 426.676C247.151 426.676 247.151 426.676 247.151 426.676C246.618 426.447 246.371 425.834 246.597 425.3L249.154 419.308C249.381 418.774 249.997 418.528 250.529 418.753L279.54 431.128Z" fill="#FFC700" stroke="#C09706"/>
<path d="M261.935 435.52C265.113 436.873 268.788 435.395 270.143 432.219C271.498 429.04 270.021 425.364 266.843 424.007C263.665 422.655 259.99 424.133 258.635 427.308C257.28 430.488 258.757 434.159 261.935 435.52Z" fill="#FF562B"/>
<path d="M262.483 434.238C264.955 435.293 267.813 434.142 268.868 431.672C269.921 429.202 268.772 426.34 266.301 425.289C263.829 424.235 260.971 425.381 259.917 427.856C258.863 430.326 260.011 433.183 262.483 434.238Z" fill="#FEF0C2"/>
<path d="M295.615 386.655C294.204 386.938 293.288 388.311 293.571 389.723C293.854 391.134 295.228 392.048 296.64 391.765C298.051 391.483 298.966 390.109 298.682 388.698C298.4 387.287 297.026 386.372 295.615 386.655Z" fill="#252120"/>
<path d="M319.222 381.039L272.064 385.705L272.391 389.006L319.548 384.34L319.222 381.039Z" fill="#0F141A"/>
<path d="M304.133 412.183L299.467 365.026L296.166 365.353L300.833 412.51L304.133 412.183Z" fill="#0F141A"/>
<path d="M319.82 389.129L272.662 393.795L272.989 397.096L320.147 392.43L319.82 389.129Z" fill="#0F141A"/>
<path d="M296.044 412.781L291.378 365.623L288.076 365.95L292.743 413.107L296.044 412.781Z" fill="#0F141A"/>
<path fill-rule="evenodd" clip-rule="evenodd" d="M292.247 366.884C280.192 369.213 272.308 380.874 274.637 392.929C276.966 404.984 288.627 412.868 300.682 410.54C312.738 408.209 320.622 396.55 318.293 384.494C315.963 372.439 304.303 364.555 292.247 366.884ZM271.34 393.566C268.659 379.69 277.734 366.268 291.61 363.586C305.487 360.905 318.909 369.981 321.59 383.857C324.271 397.735 315.196 411.156 301.32 413.837C287.443 416.518 274.021 407.441 271.34 393.566Z" fill="#0D1116"/>
<path fill-rule="evenodd" clip-rule="evenodd" d="M292.167 366.468C304.452 364.095 316.335 372.129 318.708 384.414C321.082 396.701 313.047 408.583 300.763 410.954C288.478 413.328 276.595 405.292 274.222 393.009C271.848 380.725 279.883 368.842 292.167 366.468ZM291.691 364.002C278.044 366.639 269.119 379.839 271.755 393.485C274.392 407.132 287.593 416.057 301.24 413.42C314.886 410.786 323.811 397.585 321.175 383.938C318.538 370.291 305.337 361.365 291.691 364.002ZM274.637 392.929C272.308 380.874 280.192 369.213 292.247 366.884C304.303 364.555 315.963 372.439 318.293 384.494C320.622 396.55 312.738 408.209 300.682 410.54C288.627 412.868 276.966 404.984 274.637 392.929ZM291.61 363.586C277.734 366.268 268.659 379.69 271.34 393.566C274.021 407.441 287.443 416.518 301.32 413.837C315.196 411.156 324.271 397.735 321.59 383.857C318.909 369.981 305.487 360.905 291.61 363.586Z" fill="#12181E"/>
<path d="M297.093 391.883C298.474 391.478 299.265 390.03 298.86 388.649C298.455 387.267 297.007 386.476 295.626 386.881C294.244 387.287 293.453 388.735 293.859 390.116C294.263 391.497 295.712 392.289 297.093 391.883Z" fill="#252120"/>
<path d="M295.245 384.795C292.808 385.283 291.228 387.656 291.716 390.094C292.205 392.531 294.577 394.112 297.015 393.623C299.134 393.198 300.605 391.35 300.633 389.273L322.25 365.656L317.787 361.476L295.245 384.795Z" fill="#FFC700"/>
<path d="M295.473 386.856C294.061 387.139 293.146 388.513 293.429 389.924C293.712 391.335 295.086 392.25 296.497 391.967C297.908 391.684 298.823 390.311 298.54 388.899C298.257 387.488 296.884 386.573 295.473 386.856Z" fill="#FEF0C2"/>
<path d="M298.532 384.11L300.651 386.005L312.973 372.231L310.854 370.335L298.532 384.11Z" fill="#FEF0C2"/>
<path d="M338.354 365.793L338.541 365.893L338.354 365.793L335.284 371.541C335.011 372.051 334.376 372.244 333.866 371.971L306.048 357.108C305.538 356.835 305.346 356.201 305.618 355.69L308.689 349.942C308.962 349.431 309.597 349.239 310.107 349.512L337.924 364.375C338.435 364.648 338.627 365.282 338.354 365.793Z" fill="#FFC700"/>
<path d="M338.354 365.793L338.541 365.893L338.354 365.793ZM338.354 365.793L335.284 371.541C335.011 372.051 334.376 372.244 333.866 371.971L306.048 357.108C305.538 356.835 305.346 356.201 305.618 355.69L308.689 349.942C308.962 349.431 309.597 349.239 310.107 349.512L337.924 364.375C338.435 364.648 338.627 365.282 338.354 365.793Z" stroke="#C09706"/>
<path d="M325.729 354.467C322.682 352.839 318.892 353.989 317.264 357.036C315.636 360.083 316.787 363.873 319.834 365.501C322.88 367.129 326.671 365.979 328.299 362.932C329.927 359.885 328.777 356.095 325.729 354.467Z" fill="#FF562B"/>
<path d="M325.069 355.693C322.7 354.427 319.752 355.321 318.486 357.691C317.219 360.062 318.114 363.009 320.484 364.276C322.854 365.542 325.802 364.647 327.068 362.277C328.334 359.907 327.44 356.96 325.069 355.693Z" fill="#FEF0C2"/>
<path d="M239.203 256.865L228.418 259.45C226.781 259.842 225.772 261.487 226.165 263.125C226.557 264.762 228.202 265.771 229.839 265.378L240.624 262.793C242.261 262.4 243.27 260.756 242.878 259.118C242.485 257.481 240.84 256.472 239.203 256.865Z" fill="#FF562B"/>
<path fill-rule="evenodd" clip-rule="evenodd" d="M239.4 257.688L228.616 260.273C227.433 260.557 226.704 261.745 226.988 262.927C227.271 264.11 228.46 264.839 229.642 264.555L240.427 261.97C241.609 261.686 242.338 260.498 242.055 259.315C241.771 258.133 240.583 257.404 239.4 257.688ZM242.878 259.118C243.27 260.756 242.261 262.4 240.624 262.793L229.839 265.378C228.202 265.771 226.557 264.762 226.165 263.125C225.772 261.487 226.781 259.842 228.418 259.45L239.203 256.865C240.84 256.472 242.485 257.481 242.878 259.118Z" fill="#FFA58E"/>
<path d="M318.192 311.445L338.094 317.696L334.563 350.363L315.274 341.455L318.192 311.445Z" fill="url(#paint5_linear_108_753)"/>
<path d="M353.81 367.743C348.904 361.729 336.358 345.254 335.245 343.785C325.181 345.175 318.256 337.326 316.052 333.228C309.421 337.777 305.777 344.868 305.315 346.754L351.444 372.126C354.435 373.879 356.196 370.668 353.81 367.743Z" fill="#161616"/>
<path d="M335.241 343.784C325.178 345.175 318.253 337.326 316.048 333.228C315.136 333.854 314.288 334.509 313.502 335.179C316.382 340.187 325.07 349.324 336.782 345.808C335.985 344.763 335.437 344.043 335.241 343.784Z" fill="#FF562B"/>
<path d="M329.144 183.917C350.083 184.891 360.371 191.425 360.65 204.093C361.64 249.032 345.309 332.802 344.058 337.584C342.807 342.366 315.586 334.208 315.405 325.994C315.224 317.78 314.962 255.792 314.587 238.727C314.372 229.004 259.734 243.631 227.341 235.497C194.948 227.363 184.198 225.946 194.975 182.852C241.114 179.187 282.905 181.766 329.144 183.917Z" fill="#141414"/>
<path d="M329.144 183.917C350.083 184.891 360.371 191.425 360.65 204.093C361.64 249.032 345.309 332.802 344.058 337.584C342.807 342.366 315.586 334.208 315.405 325.994C315.224 317.78 314.962 255.792 314.587 238.727C314.372 229.004 259.734 243.631 227.341 235.497C194.948 227.363 184.198 225.946 194.975 182.852C241.114 179.187 282.905 181.766 329.144 183.917Z" fill="url(#paint6_linear_108_753)"/>
<path d="M329.144 183.917C350.083 184.891 360.371 191.425 360.65 204.093C361.64 249.032 345.309 332.802 344.058 337.584C342.807 342.366 315.586 334.208 315.405 325.994C315.224 317.78 314.962 255.792 314.587 238.727C314.372 229.004 259.734 243.631 227.341 235.497C194.948 227.363 184.198 225.946 194.975 182.852C241.114 179.187 282.905 181.766 329.144 183.917Z" fill="url(#paint7_linear_108_753)"/>
<path d="M420.76 209.614L429.172 194.245L435.833 203.36C440.019 201.008 457.366 198.441 452.774 217.343C451.808 221.316 426.119 215.329 420.76 209.614Z" fill="url(#paint8_linear_108_753)"/>
<path d="M434.694 195.833C421.352 185.36 384.734 151.565 384.734 151.565C380.366 134.9 377.475 87.4627 366.996 75.719L345.582 115.106C345.582 115.106 356.758 161.442 366.52 174.422C369.405 178.26 400.171 199.895 423.589 212.727C428.187 215.246 437.653 198.159 434.694 195.833Z" fill="#FFBF30"/>
<path d="M434.694 195.833C421.352 185.36 384.734 151.565 384.734 151.565C380.366 134.9 377.475 87.4627 366.996 75.719L345.582 115.106C345.582 115.106 356.758 161.442 366.52 174.422C369.405 178.26 400.171 199.895 423.589 212.727C428.187 215.246 437.653 198.159 434.694 195.833Z" fill="url(#paint9_linear_108_753)"/>
<path d="M434.694 195.833C421.352 185.36 384.734 151.565 384.734 151.565C380.366 134.9 377.475 87.4627 366.996 75.719L345.582 115.106C345.582 115.106 356.758 161.442 366.52 174.422C369.405 178.26 400.171 199.895 423.589 212.727C428.187 215.246 437.653 198.159 434.694 195.833Z" fill="url(#paint10_linear_108_753)"/>
<path d="M366.52 174.422C369.406 178.259 400.171 199.894 423.589 212.726C428.187 215.245 437.653 198.158 434.694 195.833C421.352 185.36 384.734 151.565 384.734 151.565C380.366 134.899 377.475 87.4619 366.996 75.7186" stroke="#4BE9D9"/>
<path d="M351.214 37.682C351.214 37.682 351.376 41.7704 351.949 43.695C354.439 52.0646 360.994 56.2226 367.697 57.1384C367.697 57.1384 366.326 70.6278 365.26 78.1021C357.653 82.5031 342.916 78.9403 344.837 69.1581C346.759 59.376 349.292 47.4641 351.214 37.682Z" fill="#F4B88E"/>
<path d="M351.214 37.682C351.214 37.682 351.376 41.7704 351.949 43.695C354.439 52.0646 360.994 56.2226 367.697 57.1384C367.697 57.1384 366.326 70.6278 365.26 78.1021C357.653 82.5031 342.916 78.9403 344.837 69.1581C346.759 59.376 349.292 47.4641 351.214 37.682Z" fill="url(#paint11_linear_108_753)"/>
<path d="M351.214 37.682C351.214 37.682 351.376 41.7704 351.949 43.695C354.439 52.0646 360.994 56.2226 367.697 57.1384C367.697 57.1384 366.326 70.6278 365.26 78.1021C357.653 82.5031 342.916 78.9403 344.837 69.1581C346.759 59.376 349.292 47.4641 351.214 37.682Z" fill="url(#paint12_linear_108_753)"/>
<path d="M191.414 221.824C193.499 225.481 196.603 209.968 214.422 213.541C232.241 217.114 240.456 199.15 256.248 198.802C272.041 198.455 278.284 184.809 278.94 182.195C281.869 170.525 323.964 136.56 331.512 140.021C331.512 140.021 353.271 132.1 361.339 120.845C367.268 112.573 374.459 82.678 365.843 73.7652C363.228 82.3645 345.148 74.5094 345.011 68.28C262.008 70.1087 164.651 174.888 191.414 221.824Z" fill="#FFC542"/>
<path d="M191.414 221.824C193.499 225.481 196.603 209.968 214.422 213.541C232.241 217.114 240.456 199.15 256.248 198.802C272.041 198.455 278.284 184.809 278.94 182.195C281.869 170.525 323.964 136.56 331.512 140.021C331.512 140.021 353.271 132.1 361.339 120.845C367.268 112.573 374.459 82.678 365.843 73.7652C363.228 82.3645 345.148 74.5094 345.011 68.28C262.008 70.1087 164.651 174.888 191.414 221.824Z" fill="url(#paint13_linear_108_753)"/>
<path d="M191.414 221.824C193.499 225.481 196.603 209.968 214.422 213.541C232.241 217.114 240.456 199.15 256.248 198.802C272.041 198.455 278.284 184.809 278.94 182.195C281.869 170.525 323.964 136.56 331.512 140.021C331.512 140.021 353.271 132.1 361.339 120.845C367.268 112.573 374.459 82.678 365.843 73.7652C363.228 82.3645 345.148 74.5094 345.011 68.28C262.008 70.1087 164.651 174.888 191.414 221.824Z" fill="#12C65A"/>
<path d="M330.224 139.203C322.676 135.742 280.581 169.707 277.652 181.377C276.996 183.991 270.753 197.636 254.96 197.984C239.167 198.332 230.952 216.296 213.134 212.723C195.315 209.15 192.239 225.932 190.154 222.275C163.391 175.339 260.72 69.2904 343.723 67.4618" stroke="#12C65A"/>
<path d="M197.718 105.34C217.277 67.23 276.638 29.8659 284.535 23.1754C300.652 30.8795 334.08 59.6524 344.819 69.0282C324.613 67.9328 272.81 81.1177 221.688 134.031C213.336 133.016 192.529 115.45 197.718 105.34Z" fill="#FF7654"/>
<path d="M197.718 105.34C217.277 67.23 276.638 29.8659 284.535 23.1754C300.652 30.8795 334.08 59.6524 344.819 69.0282C324.613 67.9328 272.81 81.1177 221.688 134.031C213.336 133.016 192.529 115.45 197.718 105.34Z" fill="url(#paint14_linear_108_753)"/>
<path fill-rule="evenodd" clip-rule="evenodd" d="M290.025 9.04607C290.001 9.39578 289.697 9.65918 289.347 9.63433C288.14 9.54862 285.309 10.0422 280.852 11.8384C276.424 13.6225 270.458 16.6646 263.007 21.5926C262.714 21.7857 262.32 21.7055 262.127 21.413C261.934 21.1205 262.014 20.7267 262.307 20.5336C269.814 15.5679 275.856 12.4824 280.377 10.6607C284.868 8.85116 287.926 8.2605 289.437 8.36784C289.787 8.39264 290.05 8.69631 290.025 9.04607Z" fill="#FF7957"/>
<path d="M289.62 8.4087L311.286 25.3441C303.186 21.6143 293.722 21.5086 284.505 24.2839C268.618 32.7777 209.288 85.8937 197.718 105.337C209.096 73.3268 255.227 34.4262 289.62 8.4087Z" fill="#FF5F37"/>
<path fill-rule="evenodd" clip-rule="evenodd" d="M289.623 8.14241L289.493 8.24056C272.293 21.2518 252.154 37.4873 234.89 54.4753C217.633 71.4573 203.225 89.2134 197.519 105.266L197.9 105.446C200.78 100.607 206.642 93.6564 214.08 85.8102C221.513 77.9683 230.507 69.244 239.637 60.861C248.766 52.4775 258.03 44.4374 266.003 37.9624C273.969 31.494 280.633 26.5994 284.587 24.4811C293.759 21.7237 303.16 21.8358 311.198 25.537L311.417 25.1778L289.623 8.14241ZM309.872 24.5074C302.061 21.3948 293.137 21.4648 284.445 24.0821L284.424 24.088L284.406 24.0982C280.414 26.2321 273.713 31.1567 265.736 37.6339C257.756 44.1149 248.485 52.1611 239.35 60.549C230.216 68.9368 221.214 77.6683 213.773 85.5193C207.178 92.4761 201.799 98.7517 198.638 103.489C204.74 88.0391 218.625 71.0743 235.187 54.777C252.389 37.8505 272.454 21.6661 289.618 8.67629L309.872 24.5074Z" fill="#FF5F37"/>
<path d="M284.323 24.1292C300.439 31.8328 334.127 59.5522 344.866 68.928C333.123 37.592 315.713 28.3086 304.716 20.595C295.934 14.4354 286.348 16.1325 284.323 24.1292Z" fill="#FF7957"/>
<path fill-rule="evenodd" clip-rule="evenodd" d="M344.446 68.2409C338.638 53.0456 331.523 43.1472 324.502 36.0636C318.904 30.4159 313.369 26.5576 308.583 23.2217C307.259 22.2988 305.991 21.4157 304.797 20.5458L305.046 20.2034C306.231 21.0658 307.491 21.944 308.81 22.8641C313.599 26.2016 319.175 30.0878 324.803 35.7657C331.986 43.0138 339.258 53.1823 345.139 68.878L344.802 69.1115C339.437 64.4269 328.293 55.2002 316.476 46.1826C304.655 37.1608 292.179 28.3627 284.144 24.5213L284.326 24.1397C292.407 28.0025 304.915 36.827 316.733 45.8463C328.109 54.5277 338.862 63.4028 344.446 68.2409Z" fill="#00A3FF"/>
<path d="M232.085 92.6487C233.95 94.9059 234.93 97.1412 235.027 99.3548C235.125 101.552 234.303 103.37 232.56 104.809C231.08 106.032 229.458 106.506 227.696 106.23L233.401 113.137L229.487 116.37L212.73 96.0813L216.36 93.0832L217.681 94.4071C217.689 92.4862 218.456 90.8958 219.983 89.6357C221.788 88.1439 223.744 87.6525 225.85 88.1611C227.956 88.6697 229.979 90.0979 231.918 92.4454L232.085 92.6487ZM227.936 95.5968C226.81 94.2335 225.697 93.383 224.599 93.0452C223.508 92.7001 222.503 92.9077 221.582 93.6684C220.354 94.6827 219.897 95.8497 220.213 97.1691L225.168 103.169C226.445 103.74 227.697 103.518 228.925 102.504C230.794 100.96 230.464 98.6578 227.936 95.5968Z" fill="#FDF8D2"/>
<path d="M232.085 92.6487C233.95 94.9059 234.93 97.1412 235.027 99.3548C235.125 101.552 234.303 103.37 232.56 104.809C231.08 106.032 229.458 106.506 227.696 106.23L233.401 113.137L229.487 116.37L212.73 96.0813L216.36 93.0832L217.681 94.4071C217.689 92.4862 218.456 90.8958 219.983 89.6357C221.788 88.1439 223.744 87.6525 225.85 88.1611C227.956 88.6697 229.979 90.0979 231.918 92.4454L232.085 92.6487ZM227.936 95.5968C226.81 94.2335 225.697 93.383 224.599 93.0452C223.508 92.7001 222.503 92.9077 221.582 93.6684C220.354 94.6827 219.897 95.8497 220.213 97.1691L225.168 103.169C226.445 103.74 227.697 103.518 228.925 102.504C230.794 100.96 230.464 98.6578 227.936 95.5968Z" fill="url(#paint15_linear_108_753)"/>
<path d="M246.952 92.4678L243.024 95.712L230.92 81.0576L234.848 77.8134L246.952 92.4678ZM227.558 77.4554C227.074 76.8683 226.868 76.2251 226.944 75.525C227.028 74.8178 227.409 74.1846 228.085 73.6252C228.754 73.0733 229.443 72.8227 230.153 72.874C230.864 72.9252 231.462 73.2439 231.947 73.831C232.439 74.4268 232.638 75.0824 232.545 75.797C232.461 76.5045 232.09 77.1303 231.43 77.6749C230.771 78.219 230.082 78.4696 229.362 78.4257C228.652 78.3749 228.05 78.0512 227.558 77.4554Z" fill="#FDF8D2"/>
<path d="M246.952 92.4678L243.024 95.712L230.92 81.0576L234.848 77.8134L246.952 92.4678ZM227.558 77.4554C227.074 76.8683 226.868 76.2251 226.944 75.525C227.028 74.8178 227.409 74.1846 228.085 73.6252C228.754 73.0733 229.443 72.8227 230.153 72.874C230.864 72.9252 231.462 73.2439 231.947 73.831C232.439 74.4268 232.638 75.0824 232.545 75.797C232.461 76.5045 232.09 77.1303 231.43 77.6749C230.771 78.219 230.082 78.4696 229.362 78.4257C228.652 78.3749 228.05 78.0512 227.558 77.4554Z" fill="url(#paint16_linear_108_753)"/>
<path d="M254.436 80.9776L261.601 75.0602L264.208 78.2159L252.045 88.2609L250.076 85.8773L249.453 71.0821L242.763 76.6081L240.145 73.4386L251.887 63.7403L253.8 66.0561L254.436 80.9776Z" fill="#FDF8D2"/>
<path d="M254.436 80.9776L261.601 75.0602L264.208 78.2159L252.045 88.2609L250.076 85.8773L249.453 71.0821L242.763 76.6081L240.145 73.4386L251.887 63.7403L253.8 66.0561L254.436 80.9776Z" fill="url(#paint17_linear_108_753)"/>
<path d="M270.907 67.3743L278.072 61.4569L280.678 64.6127L268.516 74.6577L266.547 72.274L265.923 57.4789L259.233 63.0048L256.615 59.8354L268.358 50.137L270.27 52.4529L270.907 67.3743Z" fill="#FDF8D2"/>
<path d="M270.907 67.3743L278.072 61.4569L280.678 64.6127L268.516 74.6577L266.547 72.274L265.923 57.4789L259.233 63.0048L256.615 59.8354L268.358 50.137L270.27 52.4529L270.907 67.3743Z" fill="url(#paint18_linear_108_753)"/>
<path d="M293.979 53.6269C293.507 53.4239 293.015 53.094 292.501 52.6375C292.426 54.4769 291.63 56.0231 290.112 57.2757C288.677 58.4614 287.142 59.0307 285.508 58.9829C283.883 58.9277 282.548 58.2683 281.504 57.0044C280.222 55.451 279.81 53.7858 280.271 52.0078C280.74 50.2228 282.06 48.4271 284.228 46.6208L286.03 45.1328L285.336 44.2934C284.777 43.6161 284.153 43.2196 283.466 43.1044C282.787 42.9813 282.073 43.2295 281.324 43.8484C280.664 44.3925 280.276 44.9793 280.158 45.6085C280.048 46.2307 280.221 46.8166 280.676 47.3675L276.762 50.6004C276.061 49.7514 275.674 48.7498 275.601 47.5949C275.528 46.4399 275.802 45.2642 276.424 44.0672C277.038 42.8616 277.941 41.7664 279.133 40.7821C280.939 39.2907 282.746 38.5646 284.556 38.6039C286.367 38.6271 287.951 39.4601 289.309 41.1032L294.555 47.4554C295.712 48.8384 296.775 49.7302 297.744 50.1301L297.934 50.3605L293.979 53.6269ZM288.494 53.578C289.071 53.1008 289.5 52.5343 289.778 51.8787C290.05 51.214 290.124 50.5685 290.001 49.9409L287.92 47.4217L286.457 48.6299C284.498 50.2484 284.014 51.7868 285.007 53.2454L285.183 53.4871C285.586 53.9743 286.089 54.2346 286.694 54.2674C287.298 54.2999 287.898 54.0703 288.494 53.578Z" fill="#FDF8D2"/>
<path d="M293.979 53.6269C293.507 53.4239 293.015 53.094 292.501 52.6375C292.426 54.4769 291.63 56.0231 290.112 57.2757C288.677 58.4614 287.142 59.0307 285.508 58.9829C283.883 58.9277 282.548 58.2683 281.504 57.0044C280.222 55.451 279.81 53.7858 280.271 52.0078C280.74 50.2228 282.06 48.4271 284.228 46.6208L286.03 45.1328L285.336 44.2934C284.777 43.6161 284.153 43.2196 283.466 43.1044C282.787 42.9813 282.073 43.2295 281.324 43.8484C280.664 44.3925 280.276 44.9793 280.158 45.6085C280.048 46.2307 280.221 46.8166 280.676 47.3675L276.762 50.6004C276.061 49.7514 275.674 48.7498 275.601 47.5949C275.528 46.4399 275.802 45.2642 276.424 44.0672C277.038 42.8616 277.941 41.7664 279.133 40.7821C280.939 39.2907 282.746 38.5646 284.556 38.6039C286.367 38.6271 287.951 39.4601 289.309 41.1032L294.555 47.4554C295.712 48.8384 296.775 49.7302 297.744 50.1301L297.934 50.3605L293.979 53.6269ZM288.494 53.578C289.071 53.1008 289.5 52.5343 289.778 51.8787C290.05 51.214 290.124 50.5685 290.001 49.9409L287.92 47.4217L286.457 48.6299C284.498 50.2484 284.014 51.7868 285.007 53.2454L285.183 53.4871C285.586 53.9743 286.089 54.2346 286.694 54.2674C287.298 54.2999 287.898 54.0703 288.494 53.578Z" fill="url(#paint19_linear_108_753)"/>
<path d="M334.468 69.4437C335.685 69.3212 340.822 68.4664 344.792 68.8818C354.281 118.505 284.476 141.632 221.521 133.952L225.643 129.849C268.068 132.357 346.639 121.114 334.468 69.4437Z" fill="url(#paint20_linear_108_753)"/>
<path d="M372.555 56.4048C377.382 50.5524 382.23 18.8907 382.23 18.8907L349.95 16.928C350.741 28.5702 347.405 38.6591 354.045 49.4638C358.95 56.4183 367.728 62.2575 372.555 56.4048Z" fill="#F4B88E"/>
<path d="M372.555 56.4048C377.382 50.5524 382.23 18.8907 382.23 18.8907L349.95 16.928C350.741 28.5702 347.405 38.6591 354.045 49.4638C358.95 56.4183 367.728 62.2575 372.555 56.4048Z" fill="url(#paint21_linear_108_753)"/>
<path d="M372.555 56.4048C377.382 50.5524 382.23 18.8907 382.23 18.8907L349.95 16.928C350.741 28.5702 347.405 38.6591 354.045 49.4638C358.95 56.4183 367.728 62.2575 372.555 56.4048Z" fill="url(#paint22_linear_108_753)"/>
<path d="M374.676 51.6827C378.204 41.2065 382.234 18.8906 382.234 18.8906L376.469 18.5401C378.73 26.9914 376.216 44.1565 374.676 51.6827Z" fill="url(#paint23_linear_108_753)"/>
<path d="M355.171 36.5661C358.762 31.2782 360.143 27.1693 359.085 23.8046C363.945 26.5301 377.375 36.2471 383.784 25.624C390.192 15.0013 375.153 11.4731 369.764 12.1048C362.672 5.64728 355.683 10.0412 355.198 12.5117C352.872 12.0457 342.042 16.8978 342.061 24.5848C342.08 32.5402 349.243 44.719 348.335 52.1581C350.213 47.9045 350.372 41.3252 351.439 39.0732C347.179 33.6382 354.229 29.0362 355.171 36.5661Z" fill="url(#paint24_linear_108_753)"/>
<path d="M355.171 36.5661C358.762 31.2782 360.143 27.1693 359.085 23.8046C363.945 26.5301 377.375 36.2471 383.784 25.624C390.192 15.0013 375.153 11.4731 369.764 12.1048C362.672 5.64728 355.683 10.0412 355.198 12.5117C352.872 12.0457 342.042 16.8978 342.061 24.5848C342.08 32.5402 349.243 44.719 348.335 52.1581C350.213 47.9045 350.372 41.3252 351.439 39.0732C347.179 33.6382 354.229 29.0362 355.171 36.5661Z" fill="#1E1E1E"/>
<path d="M359.595 24.1147C360.154 24.3704 360.849 24.7648 361.653 25.2361C370.287 29.8055 378.273 32.1958 382.539 27.3617C376.331 34.3934 366.79 28.2489 361.653 25.2361C360.97 24.8752 360.284 24.5004 359.595 24.1147Z" fill="url(#paint25_linear_108_753)"/>
<path d="M360.292 24.2501C361.409 24.7618 363.125 25.6956 365.176 26.6245C372.878 29.7937 380.099 29.9792 383.907 25.6678C378.67 31.5986 370.705 29.1291 365.176 26.6245C363.56 25.9595 361.923 25.1637 360.292 24.2501Z" fill="url(#paint26_linear_108_753)"/>
<path d="M359.084 23.8055C372.744 28.9145 381.243 27.1473 383.784 25.6249C384.899 23.7774 385.362 22.145 385.343 20.7111C384.15 23.2271 377.226 27.3687 359.084 23.8055Z" fill="url(#paint27_linear_108_753)"/>
<path fill-rule="evenodd" clip-rule="evenodd" d="M357.999 37.7234C358.018 38.5646 357.494 40.292 355.621 40.8734C352.196 41.9365 349.171 43.3833 346.898 42.135C344.626 40.8871 342.354 39.0842 339.878 34.7567C337.402 30.4297 335.598 28.1237 335.682 26.4488C336.685 27.1299 349.875 36.6726 357.999 37.7234ZM345.574 36.0511C346.732 36.4697 352.332 39.1154 350.31 39.9765C348.866 40.5913 347.84 41.4187 347.16 40.5197C346.638 39.8297 343.453 35.0018 345.574 36.0511Z" fill="#0C55DE"/>
<path fill-rule="evenodd" clip-rule="evenodd" d="M357.999 37.7234C358.018 38.5646 357.494 40.292 355.621 40.8734C352.196 41.9365 349.171 43.3833 346.898 42.135C344.626 40.8871 342.354 39.0842 339.878 34.7567C337.402 30.4297 335.598 28.1237 335.682 26.4488C336.685 27.1299 349.875 36.6726 357.999 37.7234ZM345.574 36.0511C346.732 36.4697 352.332 39.1154 350.31 39.9765C348.866 40.5913 347.84 41.4187 347.16 40.5197C346.638 39.8297 343.453 35.0018 345.574 36.0511Z" fill="#0DBD54"/>
<path d="M335.681 26.5724C335.674 26.2589 335.82 25.5368 335.894 25.2151C337.455 24.2337 342.788 29.3229 346.188 31.3575C349.587 33.3921 355.701 31.5797 358.055 30.4187C360.41 29.2573 366.969 29.2338 371.514 28.0106C376.058 26.7874 375.874 27.1026 383.3 25.2071C377.212 32.4694 372.967 32.5367 367.02 32.1406C361.074 31.745 358.646 35.7076 358.001 37.7234C345.23 36.3563 337.864 29.2832 336.882 28.277C335.899 27.2708 335.689 26.9642 335.681 26.5724Z" fill="#0C55DE"/>
<path d="M335.681 26.5724C335.674 26.2589 335.82 25.5368 335.894 25.2151C337.455 24.2337 342.788 29.3229 346.188 31.3575C349.587 33.3921 355.701 31.5797 358.055 30.4187C360.41 29.2573 366.969 29.2338 371.514 28.0106C376.058 26.7874 375.874 27.1026 383.3 25.2071C377.212 32.4694 372.967 32.5367 367.02 32.1406C361.074 31.745 358.646 35.7076 358.001 37.7234C345.23 36.3563 337.864 29.2832 336.882 28.277C335.899 27.2708 335.689 26.9642 335.681 26.5724Z" fill="#0DBD54"/>
<path d="M388.467 18.5733C387.736 20.9428 384.338 26.3797 376.597 29.1694C372.912 30.7387 369.021 30.338 367.473 30.0478C365.925 29.7572 363.02 28.6989 358.277 33.1727C357.626 33.6874 357.194 34.3464 357.002 34.8239C356.809 35.3014 356.474 35.4443 355.672 35.2321C354.869 35.0199 348.839 33.8688 342.497 30.3165C338.401 27.9455 336.961 26.4223 335.893 25.2151C336.328 22.8924 339.441 11.9899 353.892 6.1516C368.343 0.313324 384.915 7.81808 388.467 18.5733Z" fill="#114DBD"/>
<path d="M388.467 18.5733C387.736 20.9428 384.338 26.3797 376.597 29.1694C372.912 30.7387 369.021 30.338 367.473 30.0478C365.925 29.7572 363.02 28.6989 358.277 33.1727C357.626 33.6874 357.194 34.3464 357.002 34.8239C356.809 35.3014 356.474 35.4443 355.672 35.2321C354.869 35.0199 348.839 33.8688 342.497 30.3165C338.401 27.9455 336.961 26.4223 335.893 25.2151C336.328 22.8924 339.441 11.9899 353.892 6.1516C368.343 0.313324 384.915 7.81808 388.467 18.5733Z" fill="#141414"/>
<path d="M351.625 19.2263C348.468 20.1751 344.749 22.5939 343.248 23.9021C341.322 25.5811 342.934 25.8635 345.838 25.5214C347.236 24.0974 351.378 21.1359 356.756 20.6813C357.784 18.8192 354.783 18.277 351.625 19.2263Z" fill="#2A2A2A"/>
<path d="M351.088 11.4609C354.097 10.0526 353.729 12.0247 353.168 13.1867C351.782 13.4609 347.995 15.3112 343.944 20.5186C341.77 21.5466 340.748 21.5632 341.9 19.8068C343.051 18.0499 347.326 13.2214 351.088 11.4609Z" fill="#2A2A2A"/>
<path d="M367.546 10.1498C371.695 10.5989 371.393 13.419 370.894 14.1061C368.374 12.2036 362.938 14.1967 360.535 15.4311C353.74 13.9721 363.398 9.7006 367.546 10.1498Z" fill="#2B2B2B"/>
<path d="M372.882 9.85576C370.419 7.97616 375.697 8.65731 377.414 9.34966C378.746 9.88618 381.164 11.6347 379.693 12.0977C378.092 10.5633 375.036 10.3883 373.708 10.4926C373.39 10.2801 373.11 10.0644 372.882 9.85576Z" fill="#2A2A2A"/>
<path d="M381.097 17.4373C384.307 18.8407 382.553 20.8542 381.474 20.9186C379.691 21.0384 377.682 20.3583 376.119 19.5575C377.339 20.1724 380.085 21.0817 381.314 19.7995C382.539 18.5173 380.919 17.4243 379.954 17.0379C380.35 17.146 380.734 17.2781 381.097 17.4373Z" fill="#2A2A2A"/>
<path d="M372.806 22.3144C376.974 21.8839 378.202 25.3189 372.346 27.1798C366.839 28.9297 360.709 29.5457 357.662 28.7645C363.28 29.1419 369.62 27.4702 372.904 25.5173C375.53 23.9554 373.934 22.7311 372.806 22.3144Z" fill="#2A2A2A"/>
<path d="M352.488 30.7305C349.993 31.4133 347.345 30.5467 346.332 30.028C353.347 31.6311 352.58 28.1584 352.189 27.6125C354.502 28.2105 353.713 30.4462 352.488 30.7305Z" fill="#2A2A2A"/>
<path fill-rule="evenodd" clip-rule="evenodd" d="M345.839 25.5227C347.337 24.083 351.617 21.0994 356.758 20.6826C355.731 22.5446 351.691 24.5818 347.703 25.2518C347.042 25.3624 346.416 25.455 345.839 25.5227ZM353.17 13.1879C351.779 15.1258 348.559 18.7135 343.946 20.5199C345.391 18.5856 349.259 14.4105 353.17 13.1879ZM360.537 15.4324C362.563 16.0999 367.47 16.7694 370.895 14.1074C368.436 12.4955 362.965 14.3189 360.537 15.4324ZM379.334 12.1758C379.474 12.1569 379.596 12.131 379.697 12.0989C379.003 11.3387 376.834 9.9533 373.709 10.4938C375.205 11.4918 377.541 12.4162 379.334 12.1758ZM381.35 19.7052C380.538 21.065 377.525 20.1738 376.123 19.5583C374.787 18.8727 373.776 18.0978 373.517 17.6607C373.162 16.829 376.875 16.1944 379.958 17.0391C380.831 17.442 382.114 18.4297 381.35 19.7052ZM363.424 24.2543C359.759 25.4988 354.314 27.5806 357.123 28.6003C357.29 28.661 357.471 28.7163 357.664 28.7658C363.137 29.3627 369.565 27.3377 372.772 25.5758C375.336 24.1667 373.865 22.8152 372.808 22.3153C369.11 22.6973 366.991 23.2783 364.429 23.9803C364.103 24.07 363.769 24.1612 363.424 24.2543Z" fill="#1E1E1E"/>
<path d="M345.133 28.3246C346.55 27.5631 348.463 27.223 350.155 27.2936C350.607 27.285 351.462 27.3673 352.208 27.6078C352.66 28.2265 353.107 29.6417 351.612 30.1559C349.679 30.8208 347.636 30.4844 346.005 30.0013C344.545 29.3951 344.464 28.6844 345.133 28.3246Z" fill="#1E1E1E"/>
<path d="M354.843 43.4678L350.018 43.9153C351.453 52.8454 367.987 56.3513 368.172 64.7578C368.236 67.6876 368.437 72.1803 367.677 75.2959L370.385 75.2362C370.385 75.2362 372.037 65.0913 371.422 62.6262C371.294 56.8297 356.313 50.0692 354.843 43.4678Z" fill="#FF491B"/>
<path d="M372.151 59.3958L366.554 60.323C366.054 60.406 365.799 60.9692 366.066 61.3989L368.133 64.732C368.283 64.9743 368.564 65.1036 368.846 65.0597L371.535 64.6444C371.826 64.5995 372.059 64.3806 372.121 64.0938L372.962 60.2488C373.069 59.7578 372.647 59.3137 372.151 59.3958Z" fill="#FF7957"/>
<path d="M349.08 43.3395C348.995 42.5993 348.91 41.71 348.878 41.3581C349.023 41.3688 349.379 41.4389 349.644 41.6333C349.845 43.0466 350.002 43.2768 350.35 43.3031C350.698 43.3288 352.924 43.3632 354.033 43.1398C354.92 42.9611 354.793 41.7252 354.619 41.1296L355.558 40.8498L355.832 42.4435C355.985 43.3288 355.642 43.8274 355.191 44.0126C354.741 44.1974 351.908 44.6861 350.728 44.6858C349.548 44.6852 349.186 44.2651 349.08 43.3395Z" fill="#114DBD"/>
<path fill-rule="evenodd" clip-rule="evenodd" d="M366.998 72.8081C367.24 73.453 367.355 74.6016 367.004 75.6054C366.832 76.0981 366.658 76.3708 366.537 76.5597C366.412 76.756 366.344 76.862 366.395 77.0306C366.497 77.3616 366.712 77.7362 367.557 77.7336C368.403 77.7315 370.161 77.9794 370.484 78.07C370.807 78.1607 371.75 77.9029 371.509 77.2584C371.267 76.6139 371.017 75.4785 371.257 74.5952C371.496 73.7115 371.618 73.5627 371.862 73.2657C372.105 72.9686 372.201 72.29 371.115 72.071C370.028 71.8515 367.961 71.6481 367.534 71.7451C367.107 71.8422 366.672 72.1312 366.998 72.8081ZM368.089 72.2896C367.838 72.2634 367.614 72.4448 367.588 72.6952C367.562 72.9455 367.744 73.1693 367.994 73.1955L370.756 73.4835C371.006 73.5093 371.23 73.3279 371.256 73.0775C371.282 72.8272 371.1 72.6034 370.85 72.5772L368.089 72.2896Z" fill="#FF491B"/>
<path d="M427.11 224.185L421.25 235.486L433.45 242.78C440.875 241.403 444.869 239.361 446.266 240.332C447.878 241.457 450.899 242.722 450.118 245.094C457.161 243.691 460.279 232.277 448.711 226.794C445.478 225.118 435.933 226.71 434.738 226.667C433.781 226.633 429.253 224.998 427.11 224.185Z" fill="url(#paint28_linear_108_753)"/>
<path d="M333.911 187.856C320.848 172.254 308.315 125.112 303.889 98.0177C303.317 72.0689 332.588 68.9052 334.728 71.117C336.868 73.3288 357.284 169.161 359.085 172.264C360.886 175.368 425.791 218.335 429.076 222.536C432.365 226.737 423.147 239.537 420.265 237.842C417.382 236.148 345.741 201.985 333.911 187.856Z" fill="#FFBF30"/>
<path d="M333.911 187.856C320.848 172.254 308.315 125.112 303.889 98.0177C303.317 72.0689 332.588 68.9052 334.728 71.117C336.868 73.3288 357.284 169.161 359.085 172.264C360.886 175.368 425.791 218.335 429.076 222.536C432.365 226.737 423.147 239.537 420.265 237.842C417.382 236.148 345.741 201.985 333.911 187.856Z" fill="url(#paint29_linear_108_753)"/>
<path d="M333.911 187.856C320.848 172.254 308.315 125.112 303.889 98.0177C303.317 72.0689 332.588 68.9052 334.728 71.117C336.868 73.3288 357.284 169.161 359.085 172.264C360.886 175.368 425.791 218.335 429.076 222.536C432.365 226.737 423.147 239.537 420.265 237.842C417.382 236.148 345.741 201.985 333.911 187.856Z" fill="url(#paint30_linear_108_753)"/>
<path d="M333.911 187.856C320.848 172.254 308.315 125.112 303.889 98.0177C303.317 72.0689 332.588 68.9052 334.728 71.117C336.868 73.3288 357.284 169.161 359.085 172.264C360.886 175.368 425.791 218.335 429.076 222.536C432.365 226.737 423.147 239.537 420.265 237.842C417.382 236.148 345.741 201.985 333.911 187.856Z" fill="url(#paint31_linear_108_753)"/>
<path d="M333.912 187.857C345.741 201.985 417.387 236.148 420.265 237.843C423.147 239.537 432.365 226.738 429.08 222.536C425.791 218.335 360.886 175.368 359.085 172.265C357.284 169.161 336.869 73.3295 334.728 71.1177" stroke="#4BE9D9"/>
<defs>
<linearGradient id="paint0_linear_108_753" x1="269.794" y1="387.278" x2="280.208" y2="393.173" gradientUnits="userSpaceOnUse">
<stop stop-color="#FFA261"/>
<stop offset="1" stop-color="#F4B88E"/>
</linearGradient>
<linearGradient id="paint1_linear_108_753" x1="241.629" y1="352.996" x2="333.108" y2="301.271" gradientUnits="userSpaceOnUse">
<stop/>
<stop offset="1" stop-color="#152B43" stop-opacity="0"/>
</linearGradient>
<linearGradient id="paint2_linear_108_753" x1="281.481" y1="197.38" x2="246.094" y2="207.806" gradientUnits="userSpaceOnUse">
<stop stop-color="#161616"/>
<stop offset="1" stop-color="#282828" stop-opacity="0"/>
</linearGradient>
<linearGradient id="paint3_linear_108_753" x1="545.677" y1="333.442" x2="380.077" y2="396.612" gradientUnits="userSpaceOnUse">
<stop stop-color="#020202"/>
<stop offset="1" stop-color="#0A0A0A"/>
</linearGradient>
<linearGradient id="paint4_linear_108_753" x1="235.791" y1="332.712" x2="70.1918" y2="395.882" gradientUnits="userSpaceOnUse">
<stop stop-color="#0D0D0D"/>
<stop offset="1" stop-color="#242424"/>
</linearGradient>
<linearGradient id="paint5_linear_108_753" x1="332.297" y1="319.102" x2="342.006" y2="326.096" gradientUnits="userSpaceOnUse">
<stop stop-color="#FFA261"/>
<stop offset="1" stop-color="#F4B88E"/>
</linearGradient>
<linearGradient id="paint6_linear_108_753" x1="211.482" y1="242.064" x2="272.985" y2="223.935" gradientUnits="userSpaceOnUse">
<stop/>
<stop offset="0.964205" stop-color="#152B43" stop-opacity="0"/>
</linearGradient>
<linearGradient id="paint7_linear_108_753" x1="354.758" y1="223.418" x2="288.806" y2="213.845" gradientUnits="userSpaceOnUse">
<stop stop-color="#151515"/>
<stop offset="1" stop-color="#3F3F3F" stop-opacity="0"/>
</linearGradient>
<linearGradient id="paint8_linear_108_753" x1="448.878" y1="200.547" x2="428.854" y2="211.876" gradientUnits="userSpaceOnUse">
<stop stop-color="#FFC69E"/>
<stop offset="1" stop-color="#FF9C58"/>
</linearGradient>
<linearGradient id="paint9_linear_108_753" x1="370.956" y1="171.841" x2="420.719" y2="148.913" gradientUnits="userSpaceOnUse">
<stop stop-color="#FF9330"/>
<stop offset="1" stop-color="#FFBF30" stop-opacity="0"/>
</linearGradient>
<linearGradient id="paint10_linear_108_753" x1="439.138" y1="124.138" x2="421.948" y2="153.425" gradientUnits="userSpaceOnUse">
<stop stop-color="#12C65A"/>
<stop offset="1" stop-color="#2ECF6E"/>
</linearGradient>
<linearGradient id="paint11_linear_108_753" x1="361.992" y1="57.5858" x2="346.305" y2="61.6983" gradientUnits="userSpaceOnUse">
<stop stop-color="#F4B88E"/>
<stop offset="0.978667" stop-color="#FFA261"/>
</linearGradient>
<linearGradient id="paint12_linear_108_753" x1="367.579" y1="57.8336" x2="363.055" y2="60.69" gradientUnits="userSpaceOnUse">
<stop stop-color="#FF8A37"/>
<stop offset="1" stop-color="#FAAD78" stop-opacity="0"/>
</linearGradient>
<linearGradient id="paint13_linear_108_753" x1="247.909" y1="155.148" x2="254.481" y2="132.476" gradientUnits="userSpaceOnUse">
<stop stop-color="#FFB40B"/>
<stop offset="1" stop-color="#FFC542" stop-opacity="0"/>
</linearGradient>
<linearGradient id="paint14_linear_108_753" x1="270.684" y1="107.362" x2="241.078" y2="70.7393" gradientUnits="userSpaceOnUse">
<stop stop-color="#FF491B"/>
<stop offset="1" stop-color="#FF633B" stop-opacity="0.38"/>
</linearGradient>
<linearGradient id="paint15_linear_108_753" x1="244.481" y1="60.0832" x2="266.037" y2="86.1822" gradientUnits="userSpaceOnUse">
<stop stop-color="#FFC700"/>
<stop offset="1" stop-color="white" stop-opacity="0"/>
</linearGradient>
<linearGradient id="paint16_linear_108_753" x1="244.482" y1="60.0833" x2="266.037" y2="86.1824" gradientUnits="userSpaceOnUse">
<stop stop-color="#FFC700"/>
<stop offset="1" stop-color="white" stop-opacity="0"/>
</linearGradient>
<linearGradient id="paint17_linear_108_753" x1="244.481" y1="60.0832" x2="266.037" y2="86.1823" gradientUnits="userSpaceOnUse">
<stop stop-color="#FFC700"/>
<stop offset="1" stop-color="white" stop-opacity="0"/>
</linearGradient>
<linearGradient id="paint18_linear_108_753" x1="244.481" y1="60.0832" x2="266.037" y2="86.1822" gradientUnits="userSpaceOnUse">
<stop stop-color="#FFC700"/>
<stop offset="1" stop-color="white" stop-opacity="0"/>
</linearGradient>
<linearGradient id="paint19_linear_108_753" x1="244.481" y1="60.0832" x2="266.037" y2="86.1822" gradientUnits="userSpaceOnUse">
<stop stop-color="#FFC700"/>
<stop offset="1" stop-color="white" stop-opacity="0"/>
</linearGradient>
<linearGradient id="paint20_linear_108_753" x1="337.637" y1="109.908" x2="187.93" y2="146.417" gradientUnits="userSpaceOnUse">
<stop stop-color="#FF4717"/>
<stop offset="1" stop-color="#FF491B"/>
</linearGradient>
<linearGradient id="paint21_linear_108_753" x1="347.071" y1="39.3616" x2="363.896" y2="40.2686" gradientUnits="userSpaceOnUse">
<stop stop-color="#FEA568"/>
<stop offset="1" stop-color="#F4B88E"/>
</linearGradient>
<linearGradient id="paint22_linear_108_753" x1="353.43" y1="50.3486" x2="358.378" y2="47.5099" gradientUnits="userSpaceOnUse">
<stop stop-color="#FF9F5B"/>
<stop offset="0.961909" stop-color="#F4B88E" stop-opacity="0"/>
</linearGradient>
<linearGradient id="paint23_linear_108_753" x1="377.886" y1="37.6845" x2="376.54" y2="37.5059" gradientUnits="userSpaceOnUse">
<stop stop-color="#FFCAA6"/>
<stop offset="1" stop-color="#FFCAA6" stop-opacity="0"/>
</linearGradient>
<linearGradient id="paint24_linear_108_753" x1="347.118" y1="41.8249" x2="364.296" y2="20.3565" gradientUnits="userSpaceOnUse">
<stop offset="0.0300609" stop-color="#872E1E"/>
<stop offset="1" stop-color="#B6250C"/>
</linearGradient>
<linearGradient id="paint25_linear_108_753" x1="381.262" y1="30.128" x2="344.044" y2="34.9096" gradientUnits="userSpaceOnUse">
<stop stop-color="#FFCB7C" stop-opacity="0.89"/>
<stop offset="1" stop-color="#FC340E"/>
</linearGradient>
<linearGradient id="paint26_linear_108_753" x1="382.626" y1="28.4338" x2="345.41" y2="33.2158" gradientUnits="userSpaceOnUse">
<stop stop-color="#FFCB7C" stop-opacity="0.89"/>
<stop offset="1" stop-color="#FC340E"/>
</linearGradient>
<linearGradient id="paint27_linear_108_753" x1="386.041" y1="17.7882" x2="357.068" y2="24.1582" gradientUnits="userSpaceOnUse">
<stop stop-color="#FFC700" stop-opacity="0.58"/>
<stop offset="1" stop-color="#D0A715" stop-opacity="0"/>
</linearGradient>
<linearGradient id="paint28_linear_108_753" x1="445.216" y1="224.969" x2="423.724" y2="237.676" gradientUnits="userSpaceOnUse">
<stop stop-color="#FFD6B9"/>
<stop offset="1" stop-color="#FFA769"/>
</linearGradient>
<linearGradient id="paint29_linear_108_753" x1="315.653" y1="152.388" x2="349.787" y2="148.571" gradientUnits="userSpaceOnUse">
<stop offset="0.0344023" stop-color="#FFA030"/>
<stop offset="1" stop-color="#FFBF30" stop-opacity="0"/>
</linearGradient>
<linearGradient id="paint30_linear_108_753" x1="358.552" y1="122.255" x2="325.489" y2="143.389" gradientUnits="userSpaceOnUse">
<stop stop-color="#FFF270"/>
<stop offset="1" stop-color="#FFBF30" stop-opacity="0"/>
</linearGradient>
<linearGradient id="paint31_linear_108_753" x1="404.109" y1="235.121" x2="392.293" y2="197.784" gradientUnits="userSpaceOnUse">
<stop stop-color="#12C65A"/>
<stop offset="1" stop-color="#4FD283"/>
</linearGradient>
</defs>
</svg>
